<?xml version="1.0" encoding="UTF-8"?>
<svg width="13px" height="14px" viewBox="0 0 13 14" version="1.1" xmlns="http://www.w3.org/2000/svg" xmlns:xlink="http://www.w3.org/1999/xlink">
    <!-- Generator: Sketch 46 (44423) - http://www.bohemiancoding.com/sketch -->
    <title>Combined Shape</title>
    <desc>Created with Sketch.</desc>
    <defs></defs>
    <g id="Symbols" stroke="none" stroke-width="1" fill="none" fill-rule="evenodd">
        <g id="Section-gizmo" transform="translate(-114.000000, -11.000000)" fill-rule="nonzero" fill="#394959">
            <g id="Group-4">
                <g id="Group-2" transform="translate(114.000000, 11.000000)">
                    <path d="M12.8436124,2.66476242 C12.8436124,2.83094564 12.7325677,2.96214291 12.5943788,2.96214291 L0.559599511,2.96214291 C0.418942874,2.96214291 0.307898161,2.82803014 0.307898161,2.66476242 L0.307898161,0.740535728 C0.307898161,0.332366429 0.589211435,-2.07158379e-16 0.934683876,0 L12.2168267,0 C12.5622992,0 12.8436124,0.332366429 12.8436124,0.740535728 L12.8436124,2.66476242 Z M3.028787,5 C3.1615701,5 3.26639887,5.10482877 3.26639887,5.23761187 L3.26639887,13.0461901 C3.26639887,13.1789732 3.15924058,13.283802 3.028787,13.283802 L0.899598303,13.283802 C0.573464367,13.283802 0.307898161,13.0182358 0.307898161,12.6921018 L0.307898161,5.23761187 C0.307898161,5.10482877 0.415056455,5 0.545510029,5 L3.028787,5 Z M5.30789816,5.23532042 C5.30789816,5.10253732 5.41272693,4.99770856 5.54551003,5.00003808 L12.7623881,5.00003808 C12.8951712,5.00003808 13,5.10719638 13,5.23764995 L13,12.6921399 C13,13.0182739 12.7344338,13.2838401 12.4082999,13.2838401 L5.54551003,13.2838401 C5.41272693,13.2838401 5.30789816,13.1766818 5.30789816,13.0462282 L5.30789816,5.23532042 Z" id="Combined-Shape"></path>
                </g>
            </g>
        </g>
    </g>
</svg>