<?xml version="1.0" encoding="UTF-8"?>
<svg width="20px" height="13px" viewBox="0 0 20 13" version="1.1" xmlns="http://www.w3.org/2000/svg" xmlns:xlink="http://www.w3.org/1999/xlink">
    <!-- Generator: Sketch 46 (44423) - http://www.bohemiancoding.com/sketch -->
    <title>A103</title>
    <desc>Created with Sketch.</desc>
    <defs></defs>
    <g id="text" stroke="none" stroke-width="1" fill="none" fill-rule="evenodd">
        <g id="Text-Gizmo-drop-down" transform="translate(-593.000000, -830.000000)" fill="#394959">
            <path d="M596.298,835 L595.304,835 L595.304,831.822 L594.072,831.822 L594.072,831.073 C594.244668,831.077667 594.411499,831.064833 594.5725,831.0345 C594.733501,831.004167 594.878166,830.9505 595.0065,830.8735 C595.134834,830.7965 595.243333,830.695001 595.332,830.569 C595.420667,830.442999 595.479,830.286668 595.507,830.1 L596.298,830.1 L596.298,835 Z M593.813,839.983 C593.803667,839.702999 593.836333,839.442835 593.911,839.2025 C593.985667,838.962165 594.097666,838.752168 594.247,838.5725 C594.396334,838.392832 594.584166,838.252834 594.8105,838.1525 C595.036834,838.052166 595.296999,838.002 595.591,838.002 C595.815001,838.002 596.028499,838.037 596.2315,838.107 C596.434501,838.177 596.612999,838.277333 596.767,838.408 C596.921001,838.538667 597.0435,838.699666 597.1345,838.891 C597.2255,839.082334 597.271,839.296999 597.271,839.535 C597.271,839.782335 597.231334,839.994666 597.152,840.172 C597.072666,840.349334 596.967667,840.506833 596.837,840.6445 C596.706333,840.782167 596.558167,840.906999 596.3925,841.019 C596.226833,841.131001 596.060001,841.241833 595.892,841.3515 C595.723999,841.461167 595.560667,841.578999 595.402,841.705 C595.243333,841.831001 595.103334,841.977999 594.982,842.146 L597.299,842.146 L597.299,843 L593.701,843 C593.701,842.715332 593.741833,842.468001 593.8235,842.258 C593.905167,842.047999 594.015999,841.860167 594.156,841.6945 C594.296001,841.528833 594.460499,841.376001 594.6495,841.236 C594.838501,841.095999 595.037999,840.953667 595.248,840.809 C595.355334,840.734333 595.469666,840.6585 595.591,840.5815 C595.712334,840.5045 595.823166,840.419334 595.9235,840.326 C596.023834,840.232666 596.107833,840.127667 596.1755,840.011 C596.243167,839.894333 596.277,839.761334 596.277,839.612 C596.277,839.373999 596.208167,839.188501 596.0705,839.0555 C595.932833,838.922499 595.756668,838.856 595.542,838.856 C595.397333,838.856 595.274834,838.889833 595.1745,838.9575 C595.074166,839.025167 594.993667,839.113833 594.933,839.2235 C594.872333,839.333167 594.829167,839.454499 594.8035,839.5875 C594.777833,839.720501 594.765,839.852333 594.765,839.983 L593.813,839.983 Z M599.916667,833 L611.305556,833 L611.305556,833 C611.811817,833 612.222222,833.410406 612.222222,833.916667 L612.222222,833.916667 C612.222222,834.422928 611.811817,834.833333 611.305556,834.833333 L599.916667,834.833333 C599.410406,834.833333 599,834.422928 599,833.916667 C599,833.410406 599.410406,833 599.916667,833 Z M599.916667,841 L611.305556,841 C611.811817,841 612.222222,841.410406 612.222222,841.916667 L612.222222,841.916667 C612.222222,842.422928 611.811817,842.833333 611.305556,842.833333 L599.916667,842.833333 C599.410406,842.833333 599,842.422928 599,841.916667 C599,841.410406 599.410406,841 599.916667,841 Z" id="A103"></path>
        </g>
    </g>
</svg>