<?xml version="1.0" encoding="UTF-8"?>
<svg width="15px" height="14px" viewBox="0 0 15 14" version="1.1" xmlns="http://www.w3.org/2000/svg" xmlns:xlink="http://www.w3.org/1999/xlink">
    <!-- Generator: Sketch 46 (44423) - http://www.bohemiancoding.com/sketch -->
    <title>Shape</title>
    <desc>Created with Sketch.</desc>
    <defs></defs>
    <g id="Add-panel" stroke="none" stroke-width="1" fill="none" fill-rule="evenodd">
        <path d="M10.5,2.91497976 L10.5,1.45748988 C10.5,0.648582996 9.8325,0 9,0 L6,0 C5.1675,0 4.5,0.648582996 4.5,1.45748988 L4.5,2.91497976 L0,2.91497976 L0,12.388664 C0,13.1975709 0.6675,13.8461538 1.5,13.8461538 L13.5,13.8461538 C14.3325,13.8461538 15,13.1975709 15,12.388664 L15,2.91497976 L10.5,2.91497976 Z M5.76923077,1.15384615 L9.23076923,1.15384615 L9.23076923,2.30769231 L5.76923077,2.30769231 L5.76923077,1.15384615 Z M5.76923077,11.5384615 L5.76923077,4.61538462 L11.5384615,7.69230769 L5.76923077,11.5384615 Z" id="Shape" fill="#394959" fill-rule="nonzero"></path>
    </g>
</svg>