<?xml version="1.0" encoding="UTF-8"?>
<svg width="17px" height="15px" viewBox="0 0 17 15" version="1.1" xmlns="http://www.w3.org/2000/svg" xmlns:xlink="http://www.w3.org/1999/xlink">
    <!-- Generator: Sketch 46 (44423) - http://www.bohemiancoding.com/sketch -->
    <title>d4</title>
    <desc>Created with Sketch.</desc>
    <defs></defs>
    <g id="Page-1" stroke="none" stroke-width="1" fill="none" fill-rule="evenodd">
        <path d="M12.5259091,5.39363636 L9.14136364,0.324545455 C8.99454545,0.108181818 8.74727273,0 8.5,0 C8.25272727,0 8.00545455,0.108181818 7.85863636,0.332272727 L4.47409091,5.39363636 L0.772727273,5.39363636 C0.347727273,5.39363636 0,5.74136364 0,6.16636364 C0,6.23590909 0.00772727273,6.30545455 0.0309090909,6.375 L1.99363636,13.5381818 C2.17136364,14.1872727 2.76636364,14.6663636 3.47727273,14.6663636 L13.5227273,14.6663636 C14.2336364,14.6663636 14.8286364,14.1872727 15.0140909,13.5381818 L16.9768182,6.375 L17,6.16636364 C17,5.74136364 16.6522727,5.39363636 16.2272727,5.39363636 L12.5259091,5.39363636 Z M6.18181818,5.39363636 L8.5,1.99363636 L10.8181818,5.39363636 L6.18181818,5.39363636 Z M8.5,11.5754545 C7.65,11.5754545 6.95454545,10.88 6.95454545,10.03 C6.95454545,9.18 7.65,8.48454545 8.5,8.48454545 C9.35,8.48454545 10.0454545,9.18 10.0454545,10.03 C10.0454545,10.88 9.35,11.5754545 8.5,11.5754545 Z" id="d4" fill="#D7DBDE" fill-rule="nonzero"></path>
    </g>
</svg>