<?xml version="1.0" encoding="UTF-8"?>
<svg width="14px" height="14px" viewBox="0 0 14 14" version="1.1" xmlns="http://www.w3.org/2000/svg" xmlns:xlink="http://www.w3.org/1999/xlink">
    <!-- Generator: Sketch 46 (44423) - http://www.bohemiancoding.com/sketch -->
    <title>Shape</title>
    <desc>Created with Sketch.</desc>
    <defs></defs>
    <g id="Add-panel" stroke="none" stroke-width="1" fill="none" fill-rule="evenodd">
        <path d="M0.7,6.125 L5.425,6.125 L5.425,6.125 C5.81159932,6.125 6.125,5.81159932 6.125,5.425 L6.125,0.7 L6.125,0.7 C6.125,0.313400675 5.81159932,-1.82039446e-16 5.425,-1.11022302e-16 L0.7,0 L0.7,0 C0.313400675,7.10171439e-17 -1.58367065e-16,0.313400675 -1.11022302e-16,0.7 L0,5.425 L0,5.425 C-4.67709004e-16,5.81159932 0.313400675,6.125 0.7,6.125 Z M0.7,14 L5.425,14 L5.425,14 C5.81159932,14 6.125,13.6865993 6.125,13.3 L6.125,8.575 L6.125,8.575 C6.125,8.18840068 5.81159932,7.875 5.425,7.875 L0.7,7.875 L0.7,7.875 C0.313400675,7.875 -1.58367065e-16,8.18840068 -1.11022302e-16,8.575 L0,13.3 L0,13.3 C-4.67709004e-16,13.6865993 0.313400675,14 0.7,14 Z M8.575,14 L13.3,14 L13.3,14 C13.6865993,14 14,13.6865993 14,13.3 L14,8.575 L14,8.575 C14,8.18840068 13.6865993,7.875 13.3,7.875 L8.575,7.875 L8.575,7.875 C8.18840068,7.875 7.875,8.18840068 7.875,8.575 L7.875,13.3 L7.875,13.3 C7.875,13.6865993 8.18840068,14 8.575,14 Z M8.575,6.125 L13.3,6.125 L13.3,6.125 C13.6865993,6.125 14,5.81159932 14,5.425 L14,0.7 L14,0.7 C14,0.313400675 13.6865993,-1.82039446e-16 13.3,-1.11022302e-16 L8.575,0 L8.575,0 C8.18840068,7.10171439e-17 7.875,0.313400675 7.875,0.7 L7.875,5.425 L7.875,5.425 C7.875,5.81159932 8.18840068,6.125 8.575,6.125 Z" id="Shape" fill="#394959" fill-rule="nonzero"></path>
    </g>
</svg>