<?xml version="1.0" encoding="UTF-8"?>
<svg width="12px" height="12px" viewBox="0 0 12 12" version="1.1" xmlns="http://www.w3.org/2000/svg" xmlns:xlink="http://www.w3.org/1999/xlink">
    <!-- Generator: Sketch 46 (44423) - http://www.bohemiancoding.com/sketch -->
    <title>Shape</title>
    <desc>Created with Sketch.</desc>
    <defs></defs>
    <g id="Add-panel" stroke="none" stroke-width="1" fill="none" fill-rule="evenodd">
        <g id="Laptop" transform="translate(-103.000000, -577.000000)" fill-rule="nonzero" fill="#747F8A">
            <path d="M103.7,580.322034 L105.622034,580.322034 L105.622034,580.322034 C106.008633,580.322034 106.322034,580.008633 106.322034,579.622034 L106.322034,577.7 L106.322034,577.7 C106.322034,577.313401 106.008633,577 105.622034,577 L103.7,577 L103.7,577 C103.313401,577 103,577.313401 103,577.7 L103,579.622034 L103,579.622034 C103,580.008633 103.313401,580.322034 103.7,580.322034 Z M103.7,584.661017 L105.622034,584.661017 L105.622034,584.661017 C106.008633,584.661017 106.322034,584.347616 106.322034,583.961017 L106.322034,582.038983 L106.322034,582.038983 C106.322034,581.652384 106.008633,581.338983 105.622034,581.338983 L103.7,581.338983 L103.7,581.338983 C103.313401,581.338983 103,581.652384 103,582.038983 L103,583.961017 L103,583.961017 C103,584.347616 103.313401,584.661017 103.7,584.661017 Z M103.7,589 L105.622034,589 L105.622034,589 C106.008633,589 106.322034,588.686599 106.322034,588.3 L106.322034,586.377966 L106.322034,586.377966 C106.322034,585.991367 106.008633,585.677966 105.622034,585.677966 L103.7,585.677966 L103.7,585.677966 C103.313401,585.677966 103,585.991367 103,586.377966 L103,588.3 L103,588.3 C103,588.686599 103.313401,589 103.7,589 Z M108.038983,584.661017 L109.961017,584.661017 L109.961017,584.661017 C110.347616,584.661017 110.661017,584.347616 110.661017,583.961017 L110.661017,582.038983 L110.661017,582.038983 C110.661017,581.652384 110.347616,581.338983 109.961017,581.338983 L108.038983,581.338983 L108.038983,581.338983 C107.652384,581.338983 107.338983,581.652384 107.338983,582.038983 L107.338983,583.961017 L107.338983,583.961017 C107.338983,584.347616 107.652384,584.661017 108.038983,584.661017 Z M108.038983,589 L109.961017,589 L109.961017,589 C110.347616,589 110.661017,588.686599 110.661017,588.3 L110.661017,586.377966 L110.661017,586.377966 C110.661017,585.991367 110.347616,585.677966 109.961017,585.677966 L108.038983,585.677966 L108.038983,585.677966 C107.652384,585.677966 107.338983,585.991367 107.338983,586.377966 L107.338983,588.3 L107.338983,588.3 C107.338983,588.686599 107.652384,589 108.038983,589 Z M108.038983,580.322034 L109.961017,580.322034 L109.961017,580.322034 C110.347616,580.322034 110.661017,580.008633 110.661017,579.622034 L110.661017,577.7 L110.661017,577.7 C110.661017,577.313401 110.347616,577 109.961017,577 L108.038983,577 L108.038983,577 C107.652384,577 107.338983,577.313401 107.338983,577.7 L107.338983,579.622034 L107.338983,579.622034 C107.338983,580.008633 107.652384,580.322034 108.038983,580.322034 Z M112.377966,580.322034 L114.3,580.322034 L114.3,580.322034 C114.686599,580.322034 115,580.008633 115,579.622034 L115,577.7 L115,577.7 C115,577.313401 114.686599,577 114.3,577 L112.377966,577 L112.377966,577 C111.991367,577 111.677966,577.313401 111.677966,577.7 L111.677966,579.622034 L111.677966,579.622034 C111.677966,580.008633 111.991367,580.322034 112.377966,580.322034 Z M112.377966,584.661017 L114.3,584.661017 L114.3,584.661017 C114.686599,584.661017 115,584.347616 115,583.961017 L115,582.038983 L115,582.038983 C115,581.652384 114.686599,581.338983 114.3,581.338983 L112.377966,581.338983 L112.377966,581.338983 C111.991367,581.338983 111.677966,581.652384 111.677966,582.038983 L111.677966,583.961017 L111.677966,583.961017 C111.677966,584.347616 111.991367,584.661017 112.377966,584.661017 Z M112.377966,589 L114.3,589 L114.3,589 C114.686599,589 115,588.686599 115,588.3 L115,586.377966 L115,586.377966 C115,585.991367 114.686599,585.677966 114.3,585.677966 L112.377966,585.677966 L112.377966,585.677966 C111.991367,585.677966 111.677966,585.991367 111.677966,586.377966 L111.677966,588.3 L111.677966,588.3 C111.677966,588.686599 111.991367,589 112.377966,589 Z" id="Shape"></path>
        </g>
    </g>
</svg>