<?xml version="1.0" encoding="UTF-8"?>
<svg width="11px" height="8px" viewBox="0 0 11 8" version="1.1" xmlns="http://www.w3.org/2000/svg" xmlns:xlink="http://www.w3.org/1999/xlink">
    <!-- Generator: Sketch 48.2 (47327) - http://www.bohemiancoding.com/sketch -->
    <title>Group 37 Copy 3</title>
    <desc>Created with Sketch.</desc>
    <defs></defs>
    <g id="Add-font" stroke="none" stroke-width="1" fill="none" fill-rule="evenodd" transform="translate(-572.000000, -382.000000)">
        <g id="Group-37-Copy-3" transform="translate(572.000000, 381.000000)" fill="#419CF8">
            <path d="M10.6870372,1.28440281 L10.6870372,1.28440281 C11.0716585,1.64091586 11.0944447,2.24172393 10.7379316,2.62634518 C10.7233974,2.6420253 10.7083378,2.65721009 10.6927785,2.67187357 L5.94754826,7.14389841 L4.8066357,8.22020975 C4.4209147,8.5840903 3.81822309,8.5836188 3.43307191,8.21913518 L2.29686524,7.14389841 L0.3364754,5.2984888 C-0.0831246716,4.903499 -0.103075234,4.24314343 0.291914572,3.82354336 C0.299722013,3.81524946 0.307664743,3.80708397 0.315739566,3.79905017 L0.315739566,3.79905017 C0.739925098,3.37701935 1.42413564,3.37300048 1.85324954,3.79001923 L4.11934615,5.99224289 L9.19689473,1.28450227 C9.61717144,0.894835152 10.2667085,0.894791798 10.6870372,1.28440281 Z" id="Path-Copy-9"></path>
        </g>
    </g>
</svg>