<?xml version="1.0" encoding="UTF-8"?>
<svg width="10px" height="12px" viewBox="0 0 10 12" version="1.1" xmlns="http://www.w3.org/2000/svg" xmlns:xlink="http://www.w3.org/1999/xlink">
    <!-- Generator: Sketch 46 (44423) - http://www.bohemiancoding.com/sketch -->
    <title>A9</title>
    <desc>Created with Sketch.</desc>
    <defs></defs>
    <g id="Symbols" stroke="none" stroke-width="1" fill="none" fill-rule="evenodd">
        <g id="TEXT-GIZMO-NEW" transform="translate(-118.000000, -11.000000)" fill="#394959">
            <path d="M120.616,16.2 L123.16,16.2 C123.608002,16.2 123.975999,16.0933344 124.264,15.88 C124.552001,15.6666656 124.696,15.3200024 124.696,14.84 C124.696,14.573332 124.648,14.3546675 124.552,14.184 C124.456,14.0133325 124.328001,13.8800005 124.168,13.784 C124.007999,13.6879995 123.824001,13.6213335 123.616,13.584 C123.407999,13.5466665 123.192001,13.528 122.968,13.528 L120.616,13.528 L120.616,16.2 Z M118.104,11.576 L123.48,11.576 C124.024003,11.576 124.519998,11.6239995 124.968,11.72 C125.416002,11.8160005 125.799998,11.9733322 126.12,12.192 C126.440002,12.4106678 126.687999,12.7013315 126.864,13.064 C127.040001,13.4266685 127.128,13.874664 127.128,14.408 C127.128,14.9840029 126.997335,15.4639981 126.736,15.848 C126.474665,16.2320019 126.088003,16.5466654 125.576,16.792 C126.280004,16.9946677 126.805332,17.3493308 127.152,17.856 C127.498668,18.3626692 127.672,18.9733298 127.672,19.688 C127.672,20.2640029 127.560001,20.7626646 127.336,21.184 C127.111999,21.6053354 126.810669,21.949332 126.432,22.216 C126.053331,22.482668 125.621336,22.6799994 125.136,22.808 C124.650664,22.9360006 124.152003,23 123.64,23 L118.104,23 L118.104,11.576 Z M120.616,21.048 L123.304,21.048 C123.549335,21.048 123.783999,21.0240002 124.008,20.976 C124.232001,20.9279998 124.429332,20.8480006 124.6,20.736 C124.770668,20.6239994 124.906666,20.472001 125.008,20.28 C125.109334,20.087999 125.16,19.8426682 125.16,19.544 C125.16,18.9573304 124.994668,18.5386679 124.664,18.288 C124.333332,18.0373321 123.896003,17.912 123.352,17.912 L120.616,17.912 L120.616,21.048 Z" id="A9"></path>
        </g>
    </g>
</svg>