<?xml version="1.0" encoding="UTF-8"?>
<svg width="13px" height="13px" viewBox="0 0 13 13" version="1.1" xmlns="http://www.w3.org/2000/svg" xmlns:xlink="http://www.w3.org/1999/xlink">
    <!-- Generator: Sketch 48.2 (47327) - http://www.bohemiancoding.com/sketch -->
    <title>c618</title>
    <desc>Created with Sketch.</desc>
    <defs></defs>
    <g id="Page-1" stroke="none" stroke-width="1" fill="none" fill-rule="evenodd">
        <g id="c618" fill="#445363" fill-rule="nonzero">
            <path d="M0,1.44444444 L0,4.33333333 L1.70727539,4.33333333 L1.70727539,1.70196533 L4.33333333,1.70196533 L4.33333333,0 L1.44444444,0 C0.65,0 0,0.65 0,1.44444444 Z M1.6986084,8.66666667 L0,8.66666667 L0,11.5555556 C0,12.35 0.65,13 1.44444444,13 L4.33333333,13 L4.33333333,11.3100586 L1.6986084,11.3100586 L1.6986084,8.66666667 Z M11.2997437,11.2995605 L8.66666667,11.2995605 L8.66666667,13 L11.5555556,13 C12.35,13 13,12.35 13,11.5555556 L13,8.66666667 L11.2997437,8.66666667 L11.2997437,11.2995605 Z M11.5555556,0 L8.66666667,0 L8.66666667,1.69390869 L11.3074341,1.69390869 L11.3074341,4.33333333 L13,4.33333333 L13,1.44444444 C13,0.65 12.35,0 11.5555556,0 Z"></path>
        </g>
    </g>
</svg>