<?xml version="1.0" encoding="UTF-8"?>
<svg width="15px" height="13px" viewBox="0 0 15 13" version="1.1" xmlns="http://www.w3.org/2000/svg" xmlns:xlink="http://www.w3.org/1999/xlink">
    <!-- Generator: Sketch 46 (44423) - http://www.bohemiancoding.com/sketch -->
    <title>A73</title>
    <desc>Created with Sketch.</desc>
    <defs></defs>
    <g id="text" stroke="none" stroke-width="1" fill="none" fill-rule="evenodd">
        <g id="Text-Gizmo-drop-down" transform="translate(-1071.000000, -301.000000)" fill="#394959">
            <path d="M1072,306.5 L1085,306.5 L1085,306.5 C1085.55228,306.5 1086,306.947715 1086,307.5 C1086,308.052285 1085.55228,308.5 1085,308.5 L1072,308.5 C1071.44772,308.5 1071,308.052285 1071,307.5 L1071,307.5 L1071,307.5 C1071,306.947715 1071.44772,306.5 1072,306.5 L1072,306.5 Z M1074,301 L1083,301 C1083.55228,301 1084,301.447715 1084,302 L1084,302 C1084,302.552285 1083.55228,303 1083,303 L1074,303 C1073.44772,303 1073,302.552285 1073,302 L1073,302 L1073,302 C1073,301.447715 1073.44772,301 1074,301 Z M1074,312 L1083,312 C1083.55228,312 1084,312.447715 1084,313 C1084,313.552285 1083.55228,314 1083,314 L1074,314 C1073.44772,314 1073,313.552285 1073,313 C1073,312.447715 1073.44772,312 1074,312 Z" id="A73"></path>
        </g>
    </g>
</svg>