<?xml version="1.0" encoding="UTF-8"?>
<svg width="10px" height="8px" viewBox="0 0 10 8" version="1.1" xmlns="http://www.w3.org/2000/svg" xmlns:xlink="http://www.w3.org/1999/xlink">
    <!-- Generator: Sketch 46 (44423) - http://www.bohemiancoding.com/sketch -->
    <title>d84</title>
    <desc>Created with Sketch.</desc>
    <defs></defs>
    <g id="Page-1" stroke="none" stroke-width="1" fill="none" fill-rule="evenodd">
        <path d="M9.71548831,0.284402819 L9.71548831,0.284402819 L9.71548831,0.284402819 C10.0925929,0.668903139 10.0951418,1.28370977 9.72123818,1.6713236 L5.40686201,6.14389858 L4.46606048,7.1201828 L4.46606048,7.1201828 C4.08282991,7.51786707 3.44977335,7.5295841 3.05208909,7.14635353 C3.0428289,7.1374299 3.03374172,7.12832847 3.0248326,7.11905433 L2.0880593,6.14389858 L0.307769356,4.30043835 L0.307769356,4.30043835 C-0.0944545875,3.88394224 -0.1035336,3.22649442 0.287035967,2.79905024 L0.287035967,2.79905024 L0.287035967,2.79905024 C0.641822145,2.41076785 1.24419824,2.3836138 1.63248064,2.73839998 C1.65085187,2.75518636 1.66855808,2.77268638 1.68555849,2.79085974 L3.7448601,4.99224302 L8.36082195,0.284493479 L8.36082195,0.284493479 C8.7276333,-0.0896118577 9.32826495,-0.0955248032 9.70237028,0.271286546 C9.7067856,0.275615779 9.71115849,0.279988079 9.71548831,0.284402819 Z" id="d84" fill="#FA8101"></path>
    </g>
</svg>