<?xml version="1.0" encoding="UTF-8"?>
<svg width="16px" height="15px" viewBox="0 0 16 15" version="1.1" xmlns="http://www.w3.org/2000/svg" xmlns:xlink="http://www.w3.org/1999/xlink">
    <!-- Generator: Sketch 48.2 (47327) - http://www.bohemiancoding.com/sketch -->
    <title>e4</title>
    <desc>Created with Sketch.</desc>
    <defs></defs>
    <g id="e17" stroke="none" stroke-width="1" fill="none" fill-rule="evenodd">
        <path d="M7.58186117,3.62489482 L6.21586775,2.697695 C6.17017181,2.66667781 6.10798353,2.6785773 6.07696635,2.72427324 C6.07571093,2.72612278 6.07451788,2.72801389 6.07338921,2.7299434 L2.11473186,9.49741619 C2.08684622,9.54508773 2.10288586,9.60633892 2.1505574,9.63422456 C2.1912956,9.65805451 2.24314878,9.65015759 2.27494632,9.61528089 L7.59959709,3.77500792 C7.63680633,3.73419546 7.63388534,3.67094638 7.59307288,3.63373714 C7.58955111,3.63052631 7.58580433,3.62757134 7.58186117,3.62489482 Z M6.2195779,1.11500039 L12.8040122,4.8671126 C13.1340419,5.05517864 13.2474895,5.47106619 13.0560719,5.79830176 L7.87315997,14.6586836 C7.68233906,14.9848991 7.25984003,15.0967397 6.93007648,14.9088253 L0.345136433,11.156425 C0.0151067292,10.9683589 -0.0983409414,10.5524713 0.0930766712,10.2252358 L4.93044924,1.95556647 L3.73339815,1.27343193 C3.40293706,1.08512006 3.28841207,0.670277072 3.48057104,0.34177415 C3.67139956,0.0155456301 4.09164687,-0.0975921752 4.42444941,0.0920539557 L6.2195779,1.11500039 Z M13.9151657,14.4328594 C12.7637434,14.4328594 11.8303313,13.5115799 11.8303313,12.375124 C11.8303313,11.2386681 13.8061606,8.25965318 13.9151657,8.25965318 C14.0241707,8.25965318 16,11.2386681 16,12.375124 C16,13.5115799 15.0665879,14.4328594 13.9151657,14.4328594 Z" id="e4" fill="#394959" fill-rule="nonzero"></path>
    </g>
</svg>