<?xml version="1.0" encoding="UTF-8"?>
<svg width="13px" height="13px" viewBox="0 0 13 13" version="1.1" xmlns="http://www.w3.org/2000/svg" xmlns:xlink="http://www.w3.org/1999/xlink">
    <g id="delete-element" stroke="none" stroke-width="1" fill="none" fill-rule="evenodd">
        <g id="detele-element-icon" transform="translate(-482.000000, -11.000000)" fill="#394959">
            <path d="M485.714286,12.625 L482.8125,12.625 L482.8125,12.625 C482.363769,12.625 482,12.9887686 482,13.4375 C482,13.8862314 482.363769,14.25 482.8125,14.25 L494.1875,14.25 C494.636231,14.25 495,13.8862314 495,13.4375 C495,12.9887686 494.636231,12.625 494.1875,12.625 L491.285714,12.625 L491.285714,12 C491.285714,11.4477153 490.837999,11 490.285714,11 L486.714286,11 C486.162001,11 485.714286,11.4477153 485.714286,12 L485.714286,12 L485.714286,12.625 Z M484.166667,15.3333333 L492.833333,15.3333333 L492.833333,23 C492.833333,23.5522847 492.385618,24 491.833333,24 L485.166667,24 C484.614382,24 484.166667,23.5522847 484.166667,23 L484.166667,15.3333333 Z" id="A124"></path>
        </g>
    </g>
</svg>