<?xml version="1.0" encoding="UTF-8"?>
<svg width="13px" height="14px" viewBox="0 0 13 14" version="1.1" xmlns="http://www.w3.org/2000/svg" xmlns:xlink="http://www.w3.org/1999/xlink">
    <!-- Generator: Sketch 46 (44423) - http://www.bohemiancoding.com/sketch -->
    <title>c1</title>
    <desc>Created with Sketch.</desc>
    <defs>
        <rect id="path-1" x="0" y="3" width="9" height="10" rx="1"></rect>
    </defs>
    <g id="Page-1" stroke="none" stroke-width="1" fill="none" fill-rule="evenodd">
        <g id="c1" transform="translate(1.000000, 0.000000)">
            <path d="M4,1 L4,9 L11,9 L11,1 L4,1 Z M4,0 L11,0 C11.5522847,-1.01453063e-16 12,0.44771525 12,1 L12,9 C12,9.55228475 11.5522847,10 11,10 L4,10 C3.44771525,10 3,9.55228475 3,9 L3,1 C3,0.44771525 3.44771525,1.01453063e-16 4,0 Z" id="c2" fill="#394959" fill-rule="nonzero"></path>
            <g>
                <use fill="#394959" fill-rule="evenodd" xlink:href="#path-1"></use>
                <rect stroke="#FFFFFF" stroke-width="1" x="-0.5" y="2.5" width="10" height="11" rx="1"></rect>
            </g>
        </g>
    </g>
</svg>