<?xml version="1.0" encoding="UTF-8"?>
<svg width="17px" height="17px" viewBox="0 0 17 17" version="1.1" xmlns="http://www.w3.org/2000/svg" xmlns:xlink="http://www.w3.org/1999/xlink">
    <!-- Generator: Sketch 46 (44423) - http://www.bohemiancoding.com/sketch -->
    <title>Combined Shape</title>
    <desc>Created with Sketch.</desc>
    <defs></defs>
    <g id="Symbols" stroke="none" stroke-width="1" fill="none" fill-rule="evenodd">
        <g id="4-left-buttons" transform="translate(-16.000000, -17.000000)" fill="#0FCA65">
            <path d="M22.7432525,23.7196079 L17.7236446,23.7196079 C16.7847605,23.7196079 16.0236446,24.4807238 16.0236446,25.4196079 C16.0236446,26.358492 16.7847605,27.119608 17.7236446,27.119608 L17.7236446,27.119608 L22.7432525,27.119608 L22.7432525,32.1392158 C22.7432525,33.0780999 23.5043684,33.8392159 24.4432526,33.8392159 L24.4432526,33.8392159 C25.3821367,33.8392159 26.1432526,33.0780999 26.1432526,32.1392158 L26.1432526,32.1392158 L26.1432526,27.119608 L31.1628605,27.119608 C32.1017446,27.119608 32.8628605,26.358492 32.8628605,25.4196079 L32.8628605,25.4196079 C32.8628605,24.4807238 32.1017446,23.7196079 31.1628605,23.7196079 L31.1628605,23.7196079 L26.1432526,23.7196079 L26.1432526,18.7 C26.1432526,17.7611159 25.3821367,17 24.4432526,17 C23.5043684,17 22.7432525,17.7611159 22.7432525,18.7 L22.7432525,18.7 L22.7432525,23.7196079 Z" id="Combined-Shape"></path>
        </g>
    </g>
</svg>