<?xml version="1.0" encoding="UTF-8"?>
<svg width="13px" height="22px" viewBox="0 0 13 22" version="1.1" xmlns="http://www.w3.org/2000/svg" xmlns:xlink="http://www.w3.org/1999/xlink">
    <defs></defs>
    <g id="element-panel-4-Symbols" stroke="none" stroke-width="1" fill="none" fill-rule="evenodd">
        <g id="element-panel-4-4-left-buttons" transform="translate(-17.000000, -197.000000)" fill-rule="nonzero" fill="#FA8101">
            <path d="M20.1404001,219 C20.0687286,219 20.0060161,218.983006 19.9433035,218.957514 C19.7551659,218.872541 19.6566177,218.677105 19.7014123,218.481668 L21.6902955,209.967436 L17.2914593,208.395447 C17.1570753,208.344464 17.0495681,208.242497 17.0137324,208.106541 C16.9778966,207.970585 17.0137324,207.83463 17.1033217,207.724165 L26.5191605,197.153602 C26.6535445,197.000651 26.8775178,196.958165 27.0566965,197.043138 C27.2448341,197.12811 27.3433823,197.323546 27.2985877,197.518983 L25.3097045,206.033215 L29.7085407,207.605204 C29.8429247,207.656188 29.9504319,207.758154 29.9862676,207.89411 C30.0221034,208.030066 29.9862676,208.166022 29.8966783,208.276486 L20.4808395,218.855547 C20.3912502,218.949017 20.2658251,219 20.1404001,219 Z" id="element-panel-4-Shape"></path>
        </g>
    </g>
</svg>