<?xml version="1.0" encoding="UTF-8"?>
<svg width="123px" height="123px" viewBox="0 0 123 123" version="1.1" xmlns="http://www.w3.org/2000/svg" xmlns:xlink="http://www.w3.org/1999/xlink">
    <!-- Generator: Sketch 48.2 (47327) - http://www.bohemiancoding.com/sketch -->
    <title>e30</title>
    <desc>Created with Sketch.</desc>
    <defs>
        <path d="M31.1026448,64.0767036 C13.8405296,63.5781104 0,49.4279442 0,32.0451492 C0,14.347102 14.347102,0 32.0451492,0 C49.4279442,0 63.5781104,13.8405296 64.0767036,31.1026448 L64.0902983,31.1026448 L64.0902983,59.0902983 C64.0902983,61.8517221 61.8517221,64.0902983 59.0902983,64.0902983 L31.1026448,64.0902983 L31.1026448,64.0767036 Z" id="feedback-path-1"></path>
        <filter x="-78.0%" y="-62.4%" width="256.0%" height="256.0%" filterUnits="objectBoundingBox" id="feedback-filter-2">
            <feOffset dx="0" dy="10" in="SourceAlpha" result="shadowOffsetOuter1"></feOffset>
            <feGaussianBlur stdDeviation="15" in="shadowOffsetOuter1" result="shadowBlurOuter1"></feGaussianBlur>
            <feColorMatrix values="0 0 0 0 0.976470588   0 0 0 0 0.133333333   0 0 0 0 0.333333333  0 0 0 0.3 0" type="matrix" in="shadowBlurOuter1"></feColorMatrix>
        </filter>
    </defs>
    <g id="feedback-Page-1" stroke="none" stroke-width="1" fill="none" fill-rule="evenodd">
        <g id="e30" transform="translate(29.000000, 19.000000)">
            <g id="e20">
                <use fill="black" fill-opacity="1" filter="url(#filter-2)" xlink:href="#feedback-path-1"></use>
                <use fill="#F92255" fill-rule="evenodd" xlink:href="#feedback-path-1"></use>
            </g>
            <path d="M45.3972946,25.1020335 L64.0902983,44.8698807 L64.0235903,58.9417352 C64.0105437,61.6938761 61.7758184,63.9180328 59.0236465,63.9180328 L45.3069963,63.9180328 L19.7611753,37.3860073 L45.3972946,25.1020335 Z" id="e21" fill="#000000" opacity="0.100000001"></path>
            <ellipse id="e22" fill="#ECF5FE" cx="33.1133208" cy="32.1119099" rx="14.9544029" ry="15.0211637"></ellipse>
            <path d="M48.0677237,32.1119099 L48.0677237,46.3889007 C48.0677237,46.9411855 47.6200085,47.3889007 47.0677237,47.3889007 C46.8171552,47.3889007 46.5757171,47.2948334 46.3911944,47.1253164 L42.5844427,43.6281354 L48.0677237,32.1119099 Z" id="e23" fill="#ECF5FE"></path>
            <circle id="e24" fill="#F92255" cx="28.3065484" cy="32.579235" r="1.60225746"></circle>
            <circle id="e25" fill="#F92255" cx="33.6474066" cy="32.579235" r="1.60225746"></circle>
            <circle id="e26" fill="#F92255" cx="38.9882648" cy="32.579235" r="1.60225746"></circle>
        </g>
    </g>
</svg>