<?xml version="1.0" encoding="UTF-8"?>
<svg width="9px" height="9px" viewBox="0 0 9 9" version="1.1" xmlns="http://www.w3.org/2000/svg" xmlns:xlink="http://www.w3.org/1999/xlink">
    <!-- Generator: Sketch 48.2 (47327) - http://www.bohemiancoding.com/sketch -->
    <title>e37</title>
    <desc>Created with Sketch.</desc>
    <defs></defs>
    <g id="Page-1" stroke="none" stroke-width="1" fill="none" fill-rule="evenodd">
        <path d="M4.18198052,2.76776695 L6.65685425,0.292893219 C7.04737854,-0.0976310729 7.68054352,-0.0976310729 8.07106781,0.292893219 C8.4615921,0.683417511 8.4615921,1.31658249 8.07106781,1.70710678 L5.59619408,4.18198052 L8.07106781,6.65685425 C8.4615921,7.04737854 8.4615921,7.68054352 8.07106781,8.07106781 C7.68054352,8.4615921 7.04737854,8.4615921 6.65685425,8.07106781 L4.18198052,5.59619408 L1.70710678,8.07106781 C1.31658249,8.4615921 0.683417511,8.4615921 0.292893219,8.07106781 C-0.0976310729,7.68054352 -0.0976310729,7.04737854 0.292893219,6.65685425 L2.76776695,4.18198052 L0.292893219,1.70710678 C-0.0976310729,1.31658249 -0.0976310729,0.683417511 0.292893219,0.292893219 C0.683417511,-0.0976310729 1.31658249,-0.0976310729 1.70710678,0.292893219 L4.18198052,2.76776695 Z" id="e37" fill="#828B95"></path>
    </g>
</svg>