<?xml version="1.0" encoding="UTF-8"?>
<svg width="17px" height="17px" viewBox="0 0 17 17" version="1.1" xmlns="http://www.w3.org/2000/svg" xmlns:xlink="http://www.w3.org/1999/xlink">
    <!-- Generator: Sketch 48.2 (47327) - http://www.bohemiancoding.com/sketch -->
    <title>e35</title>
    <desc>Created with Sketch.</desc>
    <defs></defs>
    <g id="Page-1" stroke="none" stroke-width="1" fill="none" fill-rule="evenodd">
        <g id="e35" fill-rule="nonzero">
            <path d="M16.9834146,8.49170732 C16.9834146,3.80194634 13.1814683,0 8.49170732,0 C3.80194634,0 0,3.80194634 0,8.49170732 C0,13.1814683 3.80194634,16.9834146 8.49170732,16.9834146 C13.1814683,16.9834146 16.9834146,13.1814683 16.9834146,8.49170732" id="e31" fill="#FFCC4D" transform="translate(8.491707, 8.491707) scale(-1, 1) rotate(-180.000000) translate(-8.491707, -8.491707) "></path>
            <path d="M12.8956195,12.9127705 C12.8116561,12.9887314 12.6861463,12.9934583 12.5960463,12.9264534 C12.5776366,12.9127705 10.7457829,11.5583266 8.49170732,11.5583266 C6.2433122,11.5583266 4.40532195,12.9127705 4.38736829,12.9264534 C4.29726829,12.9934583 4.17175854,12.9877778 4.08779512,12.9127705 C4.0042878,12.837307 3.98542195,12.7127509 4.04342927,12.6165144 C4.10429756,12.5150948 5.56107317,10.1430558 8.49166585,10.1430558 C11.4222585,10.1430558 12.8795317,12.5150534 12.9399024,12.6165144 C12.9979927,12.713207 12.9795829,12.837307 12.8956195,12.9127705" id="e32" fill="#664500" transform="translate(8.491761, 11.558251) scale(-1, 1) rotate(-180.000000) translate(-8.491761, -11.558251) "></path>
            <path d="M3.77362683,5.18939512 C3.70284878,5.18939512 3.63070244,5.20544146 3.56324146,5.2389439 C3.33017561,5.35595366 3.23534878,5.63948049 3.35190244,5.87204878 C3.37690488,5.92159756 3.9741439,7.07643659 5.66116585,7.07643659 C7.3486439,7.07643659 7.94542683,5.9211 7.96997317,5.87204878 C8.08698293,5.63898293 7.9921561,5.35595366 7.75909024,5.2389439 C7.52747561,5.12384146 7.24722439,5.21630488 7.12880488,5.4451 C7.10852927,5.48237561 6.73722439,6.13293659 5.66116585,6.13293659 C4.56810732,6.13293659 4.19916585,5.45691707 4.19634634,5.45028293 C4.11329512,5.28471951 3.94673659,5.18939512 3.77362683,5.18939512" id="e33" fill="#664500" transform="translate(5.661084, 6.132916) scale(-1, 1) rotate(-180.000000) translate(-5.661084, -6.132916) "></path>
            <path d="M13.2093317,5.18943821 C13.0361805,5.18898211 12.8696634,5.28472113 12.7866537,5.45032601 C12.774878,5.47201138 12.4063927,6.13297967 11.3218341,6.13297967 C10.2372756,6.13297967 9.86879024,5.47205284 9.85369756,5.44418943 C9.73104878,5.21726016 9.44797805,5.12811382 9.21918293,5.24603577 C8.9903878,5.36491138 8.89742683,5.64138943 9.01257073,5.8720504 C9.03711707,5.92110162 9.6343561,7.07643821 11.3218341,7.07643821 C13.0093122,7.07643821 13.6065927,5.92110162 13.6306415,5.8720504 C13.7476512,5.63898455 13.6528244,5.35595528 13.4197585,5.23894552 C13.3522561,5.20548455 13.2800683,5.18943821 13.2093317,5.18943821" id="e34" fill="#664500" transform="translate(11.321963, 6.132937) scale(-1, 1) rotate(-180.000000) translate(-11.321963, -6.132937) "></path>
        </g>
    </g>
</svg>