<?xml version="1.0" encoding="UTF-8"?>
<svg width="12px" height="17px" viewBox="0 0 12 17" version="1.1" xmlns="http://www.w3.org/2000/svg" xmlns:xlink="http://www.w3.org/1999/xlink">
    <!-- Generator: Sketch 46 (44423) - http://www.bohemiancoding.com/sketch -->
    <title>Shape</title>
    <desc>Created with Sketch.</desc>
    <defs></defs>
    <g id="Add-panel" stroke="none" stroke-width="1" fill="none" fill-rule="evenodd">
        <g id="Laptop" transform="translate(-103.000000, -613.000000)" fill-rule="nonzero" fill="#747F8A">
            <path d="M109,625.467532 C109.825,625.467532 110.5,624.766234 110.5,623.909091 C110.5,623.051948 109.825,622.350649 109,622.350649 C108.175,622.350649 107.5,623.051948 107.5,623.909091 C107.5,624.766234 108.175,625.467532 109,625.467532 Z M113.5,618.454545 L112.75,618.454545 L112.75,616.896104 C112.75,614.745455 111.07,613 109,613 C106.93,613 105.25,614.745455 105.25,616.896104 L106.675,616.896104 C106.675,615.563636 107.7175,614.480519 109,614.480519 C110.2825,614.480519 111.325,615.563636 111.325,616.896104 L111.325,618.454545 L104.5,618.454545 C103.675,618.454545 103,619.155844 103,620.012987 L103,627.805195 C103,628.662338 103.675,629.363636 104.5,629.363636 L113.5,629.363636 C114.325,629.363636 115,628.662338 115,627.805195 L115,620.012987 C115,619.155844 114.325,618.454545 113.5,618.454545 Z M113.5,627.805195 L104.5,627.805195 L104.5,620.012987 L113.5,620.012987 L113.5,627.805195 Z" id="Shape"></path>
        </g>
    </g>
</svg>