<?xml version="1.0" encoding="UTF-8"?>
<svg width="13px" height="13px" viewBox="0 0 13 13" version="1.1" xmlns="http://www.w3.org/2000/svg" xmlns:xlink="http://www.w3.org/1999/xlink">
    <!-- Generator: Sketch 48.2 (47327) - http://www.bohemiancoding.com/sketch -->
    <title>A33</title>
    <desc>Created with Sketch.</desc>
    <defs></defs>
    <g id="TEXT-GIZMO--NEW-1" stroke="none" stroke-width="1" fill="none" fill-rule="evenodd" transform="translate(-282.000000, -11.000000)">
        <path d="M294.050314,11.9551453 C293.435235,11.3382127 292.619869,11 291.752501,11 C290.884321,11 290.068142,11.3382127 289.454688,11.9543303 L286.58161,14.8360656 C285.314481,16.1070119 285.314481,18.1745917 286.580797,19.4459455 C286.785553,19.6513181 287.018747,19.8134972 287.262503,19.954487 L288.494693,18.7193994 C288.215186,18.6509419 287.948678,18.512397 287.729704,18.2935774 C287.527386,18.0906498 287.397382,17.8453437 287.323442,17.5878131 L287.323442,17.5861831 C287.297442,17.4944989 287.279973,17.4032223 287.270222,17.3099082 C287.26941,17.3066483 287.26941,17.3033884 287.26941,17.300536 C287.260878,17.2096668 287.258441,17.1200201 287.264535,17.0283359 C287.265347,17.0210012 287.26616,17.0140739 287.266972,17.0067392 C287.274285,16.9183149 287.287691,16.8307056 287.309223,16.7443187 C287.310848,16.736984 287.314098,16.7300567 287.315723,16.722722 C287.387225,16.4545967 287.520479,16.1991035 287.729704,15.9888412 L290.602782,13.1071059 C290.920072,12.789675 291.336083,12.6303482 291.752501,12.6303482 C292.167294,12.6303482 292.583305,12.789675 292.900595,13.1071059 C293.535175,13.7435978 293.535175,14.7761653 292.900595,15.4126571 L291.902411,16.4138482 C291.929225,16.4839357 291.945881,16.556468 291.969038,16.626963 L291.969851,16.6285929 C291.975538,16.6477447 291.98082,16.6668965 291.98732,16.6860483 C292.126261,17.1395793 292.184763,17.6094098 292.162825,18.0796477 L292.162825,18.0804627 C292.1612,18.1036893 292.158762,18.1265085 292.156325,18.1497351 C292.149012,18.2642385 292.144543,18.3787418 292.127886,18.4928377 L294.049908,16.5650252 C295.31663,15.2936714 295.31663,13.2252766 294.050314,11.9551453 Z M289.737852,15.044698 L288.505662,16.2806006 C288.78517,16.3490581 289.051677,16.4867881 289.270652,16.7056076 C289.47297,16.9093502 289.602974,17.1538413 289.676913,17.4117795 L289.676913,17.4142244 C289.702914,17.5050936 289.720383,17.5963702 289.730133,17.6896844 C289.730946,17.6929442 289.730946,17.6962041 289.730946,17.6990565 C289.739884,17.7899257 289.741915,17.8803874 289.735821,17.9712566 C289.735008,17.9794063 289.734196,17.9863336 289.733383,17.9936683 C289.726071,18.0820926 289.712664,18.1688869 289.691132,18.2556813 C289.689507,18.263831 289.686257,18.2707582 289.684632,18.278093 C289.61313,18.5462182 289.479876,18.8008965 289.270246,19.0119738 L286.397167,21.8928941 C286.079877,22.21114 285.663866,22.3704667 285.248261,22.3704667 C284.832656,22.3704667 284.416644,22.21114 284.099354,21.8928941 C283.464774,21.2564022 283.464774,20.2246497 284.099354,19.5881579 L285.097538,18.5861518 C285.070725,18.5160643 285.054068,18.443532 285.030911,18.373037 L285.030911,18.372222 C285.024411,18.3530702 285.019129,18.3331035 285.012629,18.3139517 C284.873688,17.8612356 284.815186,17.3905902 284.837937,16.9211673 C284.837937,16.9203523 284.837937,16.9203523 284.837937,16.9203523 C284.83875,16.8963107 284.842,16.8734915 284.843625,16.8502649 C284.850937,16.7357615 284.855406,16.6212582 284.872063,16.5071623 L282.950448,18.4353823 C281.683319,19.7063286 281.683319,21.7739084 282.949635,23.0448547 C283.564715,23.6609723 284.380081,24 285.248261,24 C286.116441,24 286.931807,23.6609723 287.546074,23.0456697 L290.419152,20.1639344 C291.685468,18.8929881 291.685468,16.8245933 290.419152,15.554462 C290.214803,15.3486819 289.981203,15.1860954 289.737852,15.044698 Z" id="A33" fill="#394959" fill-rule="nonzero"></path>
    </g>
</svg>