<?xml version="1.0" encoding="UTF-8"?>
<svg width="16px" height="12px" viewBox="0 0 16 12" version="1.1" xmlns="http://www.w3.org/2000/svg" xmlns:xlink="http://www.w3.org/1999/xlink">
    <!-- Generator: Sketch 46 (44423) - http://www.bohemiancoding.com/sketch -->
    <title>A69</title>
    <desc>Created with Sketch.</desc>
    <defs></defs>
    <g id="h1-typography" stroke="none" stroke-width="1" fill="none" fill-rule="evenodd">
        <g id="h1-typography-drop-down" transform="translate(-352.000000, -238.000000)" fill="#394959">
            <path d="M352.34,238.576 L354.852,238.576 L354.852,242.96 L359.476,242.96 L359.476,238.576 L361.988,238.576 L361.988,250 L359.476,250 L359.476,245.072 L354.852,245.072 L354.852,250 L352.34,250 L352.34,238.576 Z M363.728,242.992 C364.016001,242.992 364.295999,242.968 364.568,242.92 C364.840001,242.872 365.085999,242.792001 365.306,242.68 C365.526001,242.567999 365.713999,242.424001 365.87,242.248 C366.026001,242.071999 366.128,241.856001 366.176,241.6 L367.292,241.6 L367.292,250 L365.792,250 L365.792,244.072 L363.728,244.072 L363.728,242.992 Z" id="A69"></path>
        </g>
    </g>
</svg>