<?xml version="1.0" encoding="UTF-8"?>
<svg width="18px" height="12px" viewBox="0 0 18 12" version="1.1" xmlns="http://www.w3.org/2000/svg" xmlns:xlink="http://www.w3.org/1999/xlink">
    <!-- Generator: Sketch 46 (44423) - http://www.bohemiancoding.com/sketch -->
    <title>A68</title>
    <desc>Created with Sketch.</desc>
    <defs></defs>
    <g id="h2-typography" stroke="none" stroke-width="1" fill="none" fill-rule="evenodd">
        <g id="h2-typography-drop-down" transform="translate(-352.000000, -272.000000)" fill="#394959">
            <path d="M352.34,272.576 L354.852,272.576 L354.852,276.96 L359.476,276.96 L359.476,272.576 L361.988,272.576 L361.988,284 L359.476,284 L359.476,279.072 L354.852,279.072 L354.852,284 L352.34,284 L352.34,272.576 Z M369.296,284 L363.56,284 C363.568,283.303997 363.735998,282.696003 364.064,282.176 C364.392002,281.655997 364.839997,281.204002 365.408,280.82 C365.680001,280.619999 365.963999,280.426001 366.26,280.238 C366.556001,280.049999 366.827999,279.848001 367.076,279.632 C367.324001,279.415999 367.527999,279.182001 367.688,278.93 C367.848001,278.677999 367.932,278.388002 367.94,278.06 C367.94,277.907999 367.922,277.746001 367.886,277.574 C367.85,277.401999 367.780001,277.242001 367.676,277.094 C367.571999,276.945999 367.428001,276.822001 367.244,276.722 C367.059999,276.622 366.820001,276.572 366.524,276.572 C366.251999,276.572 366.026001,276.625999 365.846,276.734 C365.665999,276.842001 365.522001,276.989999 365.414,277.178 C365.305999,277.366001 365.226,277.587999 365.174,277.844 C365.122,278.100001 365.092,278.375999 365.084,278.672 L363.716,278.672 C363.716,278.207998 363.777999,277.778002 363.902,277.382 C364.026001,276.985998 364.211999,276.644001 364.46,276.356 C364.708001,276.067999 365.009998,275.842001 365.366,275.678 C365.722002,275.513999 366.135998,275.432 366.608,275.432 C367.120003,275.432 367.547998,275.515999 367.892,275.684 C368.236002,275.852001 368.513999,276.063999 368.726,276.32 C368.938001,276.576001 369.088,276.853998 369.176,277.154 C369.264,277.454002 369.308,277.739999 369.308,278.012 C369.308,278.348002 369.256001,278.651999 369.152,278.924 C369.047999,279.196001 368.908001,279.445999 368.732,279.674 C368.555999,279.902001 368.356001,280.111999 368.132,280.304 C367.907999,280.496001 367.676001,280.675999 367.436,280.844 C367.195999,281.012001 366.956001,281.171999 366.716,281.324 C366.475999,281.476001 366.254001,281.627999 366.05,281.78 C365.845999,281.932001 365.668001,282.089999 365.516,282.254 C365.363999,282.418001 365.26,282.591999 365.204,282.776 L369.296,282.776 L369.296,284 Z" id="A68"></path>
        </g>
    </g>
</svg>