<?xml version="1.0" encoding="UTF-8"?>
<svg width="18px" height="13px" viewBox="0 0 18 13" version="1.1" xmlns="http://www.w3.org/2000/svg" xmlns:xlink="http://www.w3.org/1999/xlink">
    <!-- Generator: Sketch 46 (44423) - http://www.bohemiancoding.com/sketch -->
    <title>a1</title>
    <desc>Created with Sketch.</desc>
    <defs></defs>
    <g id="h3-typography" stroke="none" stroke-width="1" fill="none" fill-rule="evenodd">
        <g id="h3-typography-GIZMO-NEW" transform="translate(-17.000000, -11.000000)" fill="#394959">
            <path d="M17.84,11.576 L17.84,23 L20.352,23 L20.352,18.072 L24.976,18.072 L24.976,23 L27.488,23 L27.488,11.576 L24.976,11.576 L24.976,15.96 L20.352,15.96 L20.352,11.576 L17.84,11.576 Z M31.328,18.08 C31.5520011,18.088 31.7759989,18.0720002 32,18.032 C32.2240011,17.9919998 32.4239991,17.9220005 32.6,17.822 C32.7760009,17.7219995 32.9179995,17.5840009 33.026,17.408 C33.1340005,17.2319991 33.188,17.0160013 33.188,16.76 C33.188,16.3999982 33.0660012,16.1120011 32.822,15.896 C32.5779988,15.6799989 32.2640019,15.572 31.88,15.572 C31.6399988,15.572 31.4320009,15.6199995 31.256,15.716 C31.0799991,15.8120005 30.9340006,15.9419992 30.818,16.106 C30.7019994,16.2700008 30.6160003,16.453999 30.56,16.658 C30.5039997,16.862001 30.48,17.0719989 30.488,17.288 L29.12,17.288 C29.1360001,16.879998 29.2119993,16.5020017 29.348,16.154 C29.4840007,15.8059983 29.6699988,15.5040013 29.906,15.248 C30.1420012,14.9919987 30.4279983,14.7920007 30.764,14.648 C31.1000017,14.5039993 31.4799979,14.432 31.904,14.432 C32.2320016,14.432 32.5539984,14.4799995 32.87,14.576 C33.1860016,14.6720005 33.4699987,14.8119991 33.722,14.996 C33.9740013,15.1800009 34.1759992,15.4139986 34.328,15.698 C34.4800008,15.9820014 34.556,16.3079982 34.556,16.676 C34.556,17.1000021 34.460001,17.4699984 34.268,17.786 C34.075999,18.1020016 33.776002,18.3319993 33.368,18.476 L33.368,18.5 C33.8480024,18.5960005 34.2219987,18.8339981 34.49,19.214 C34.7580013,19.5940019 34.892,20.0559973 34.892,20.6 C34.892,21.000002 34.8120008,21.3579984 34.652,21.674 C34.4919992,21.9900016 34.2760014,22.2579989 34.004,22.478 C33.7319986,22.6980011 33.4160018,22.8679994 33.056,22.988 C32.6959982,23.1080006 32.316002,23.168 31.916,23.168 C31.4279976,23.168 31.0020018,23.0980007 30.638,22.958 C30.2739982,22.8179993 29.9700012,22.6200013 29.726,22.364 C29.4819988,22.1079987 29.2960006,21.8000018 29.168,21.44 C29.0399994,21.0799982 28.972,20.6800022 28.964,20.24 L30.332,20.24 C30.3159999,20.7520026 30.4419987,21.1779983 30.71,21.518 C30.9780013,21.8580017 31.3799973,22.028 31.916,22.028 C32.3720023,22.028 32.7539985,21.8980013 33.062,21.638 C33.3700015,21.3779987 33.524,21.0080024 33.524,20.528 C33.524,20.1999984 33.4600006,19.940001 33.332,19.748 C33.2039994,19.555999 33.036001,19.4100005 32.828,19.31 C32.619999,19.2099995 32.3860013,19.1480001 32.126,19.124 C31.8659987,19.0999999 31.6000014,19.092 31.328,19.1 L31.328,18.08 Z" id="a1"></path>
        </g>
    </g>
</svg>