<?xml version="1.0" encoding="UTF-8"?>
<svg width="18px" height="12px" viewBox="0 0 18 12" version="1.1" xmlns="http://www.w3.org/2000/svg" xmlns:xlink="http://www.w3.org/1999/xlink">
    <!-- Generator: Sketch 46 (44423) - http://www.bohemiancoding.com/sketch -->
    <title>A66</title>
    <desc>Created with Sketch.</desc>
    <defs></defs>
    <g id="h4-typography" stroke="none" stroke-width="1" fill="none" fill-rule="evenodd">
        <g id="h4-typography-drop-down" transform="translate(-352.000000, -340.000000)" fill="#394959">
            <path d="M352.34,340.576 L354.852,340.576 L354.852,344.96 L359.476,344.96 L359.476,340.576 L361.988,340.576 L361.988,352 L359.476,352 L359.476,347.072 L354.852,347.072 L354.852,352 L352.34,352 L352.34,340.576 Z M369.356,350.008 L368.276,350.008 L368.276,352 L366.98,352 L366.98,350.008 L363.38,350.008 L363.38,348.652 L366.98,343.6 L368.276,343.6 L368.276,348.928 L369.356,348.928 L369.356,350.008 Z M364.436,348.928 L366.98,348.928 L366.98,345.232 L366.956,345.232 L364.436,348.928 Z" id="A66"></path>
        </g>
    </g>
</svg>