<?xml version="1.0" encoding="UTF-8"?>
<svg width="18px" height="13px" viewBox="0 0 18 13" version="1.1" xmlns="http://www.w3.org/2000/svg" xmlns:xlink="http://www.w3.org/1999/xlink">
    <!-- Generator: Sketch 46 (44423) - http://www.bohemiancoding.com/sketch -->
    <title>A64</title>
    <desc>Created with Sketch.</desc>
    <defs></defs>
    <g id="text" stroke="none" stroke-width="1" fill="none" fill-rule="evenodd">
        <g id="Text-Gizmo-drop-down" transform="translate(-393.000000, -238.000000)" fill="#394959">
            <path d="M393.31574,238.576 L395.82774,238.576 L395.82774,242.96 L400.45174,242.96 L400.45174,238.576 L402.96374,238.576 L402.96374,250 L400.45174,250 L400.45174,245.072 L395.82774,245.072 L395.82774,250 L393.31574,250 L393.31574,238.576 Z M405.54374,241.6 L409.88774,241.6 L409.88774,242.824 L406.56374,242.824 L406.13174,244.96 L406.15574,244.984 C406.33974,244.775999 406.573738,244.618001 406.85774,244.51 C407.141741,244.401999 407.423738,244.348 407.70374,244.348 C408.119742,244.348 408.491738,244.417999 408.81974,244.558 C409.147741,244.698001 409.423738,244.893999 409.64774,245.146 C409.871741,245.398001 410.041739,245.695998 410.15774,246.04 C410.27374,246.384002 410.33174,246.755998 410.33174,247.156 C410.33174,247.492002 410.27774,247.837998 410.16974,248.194 C410.061739,248.550002 409.889741,248.873999 409.65374,249.166 C409.417738,249.458001 409.115741,249.697999 408.74774,249.886 C408.379738,250.074001 407.939742,250.168 407.42774,250.168 C407.019738,250.168 406.641741,250.114001 406.29374,250.006 C405.945738,249.897999 405.639741,249.736001 405.37574,249.52 C405.111738,249.303999 404.90174,249.038002 404.74574,248.722 C404.589739,248.405998 404.50374,248.036002 404.48774,247.612 L405.85574,247.612 C405.89574,248.068002 406.051738,248.417999 406.32374,248.662 C406.595741,248.906001 406.955737,249.028 407.40374,249.028 C407.691741,249.028 407.935739,248.98 408.13574,248.884 C408.335741,248.788 408.497739,248.656001 408.62174,248.488 C408.74574,248.319999 408.833739,248.124001 408.88574,247.9 C408.93774,247.675999 408.96374,247.436001 408.96374,247.18 C408.96374,246.947999 408.93174,246.726001 408.86774,246.514 C408.803739,246.301999 408.70774,246.116001 408.57974,245.956 C408.451739,245.795999 408.285741,245.668 408.08174,245.572 C407.877739,245.476 407.639741,245.428 407.36774,245.428 C407.079738,245.428 406.809741,245.481999 406.55774,245.59 C406.305738,245.698001 406.12374,245.899999 406.01174,246.196 L404.64374,246.196 L405.54374,241.6 Z" id="A64"></path>
        </g>
    </g>
</svg>