<?xml version="1.0" encoding="UTF-8"?>
<svg width="18px" height="13px" viewBox="0 0 18 13" version="1.1" xmlns="http://www.w3.org/2000/svg" xmlns:xlink="http://www.w3.org/1999/xlink">
    <!-- Generator: Sketch 46 (44423) - http://www.bohemiancoding.com/sketch -->
    <title>A63</title>
    <desc>Created with Sketch.</desc>
    <defs></defs>
    <g id="text" stroke="none" stroke-width="1" fill="none" fill-rule="evenodd">
        <g id="Text-Gizmo-drop-down" transform="translate(-393.000000, -272.000000)" fill="#394959">
            <path d="M393.31574,272.576 L395.82774,272.576 L395.82774,276.96 L400.45174,276.96 L400.45174,272.576 L402.96374,272.576 L402.96374,284 L400.45174,284 L400.45174,279.072 L395.82774,279.072 L395.82774,284 L393.31574,284 L393.31574,272.576 Z M408.80774,277.724 C408.775739,277.379998 408.653741,277.102001 408.44174,276.89 C408.229739,276.677999 407.943741,276.572 407.58374,276.572 C407.335738,276.572 407.12174,276.618 406.94174,276.71 C406.761739,276.802 406.60974,276.923999 406.48574,277.076 C406.361739,277.228001 406.26174,277.401999 406.18574,277.598 C406.109739,277.794001 406.04774,277.999999 405.99974,278.216 C405.951739,278.432001 405.91774,278.645999 405.89774,278.858 C405.877739,279.070001 405.85974,279.267999 405.84374,279.452 L405.86774,279.476 C406.05174,279.139998 406.305738,278.890001 406.62974,278.726 C406.953741,278.561999 407.303738,278.48 407.67974,278.48 C408.095742,278.48 408.467738,278.551999 408.79574,278.696 C409.123741,278.840001 409.401738,279.037999 409.62974,279.29 C409.857741,279.542001 410.031739,279.839998 410.15174,280.184 C410.27174,280.528002 410.33174,280.899998 410.33174,281.3 C410.33174,281.708002 410.26574,282.085998 410.13374,282.434 C410.001739,282.782002 409.811741,283.085999 409.56374,283.346 C409.315738,283.606001 409.019741,283.807999 408.67574,283.952 C408.331738,284.096001 407.951742,284.168 407.53574,284.168 C406.919736,284.168 406.413742,284.054001 406.01774,283.826 C405.621738,283.597999 405.309741,283.286002 405.08174,282.89 C404.853738,282.493998 404.69574,282.030003 404.60774,281.498 C404.519739,280.965997 404.47574,280.392003 404.47574,279.776 C404.47574,279.271997 404.529739,278.764003 404.63774,278.252 C404.74574,277.739997 404.923738,277.274002 405.17174,276.854 C405.419741,276.433998 405.745738,276.092001 406.14974,275.828 C406.553742,275.563999 407.051737,275.432 407.64374,275.432 C407.979741,275.432 408.295738,275.487999 408.59174,275.6 C408.887741,275.712001 409.149738,275.867999 409.37774,276.068 C409.605741,276.268001 409.791739,276.507999 409.93574,276.788 C410.07974,277.068001 410.159739,277.379998 410.17574,277.724 L408.80774,277.724 Z M407.48774,283.028 C407.735741,283.028 407.951739,282.978 408.13574,282.878 C408.31974,282.777999 408.473739,282.648001 408.59774,282.488 C408.72174,282.327999 408.813739,282.142001 408.87374,281.93 C408.93374,281.717999 408.96374,281.500001 408.96374,281.276 C408.96374,281.051999 408.93374,280.836001 408.87374,280.628 C408.813739,280.419999 408.72174,280.238001 408.59774,280.082 C408.473739,279.925999 408.31974,279.8 408.13574,279.704 C407.951739,279.608 407.735741,279.56 407.48774,279.56 C407.239738,279.56 407.021741,279.606 406.83374,279.698 C406.645739,279.79 406.48774,279.913999 406.35974,280.07 C406.231739,280.226001 406.13574,280.407999 406.07174,280.616 C406.007739,280.824001 405.97574,281.043999 405.97574,281.276 C405.97574,281.508001 406.007739,281.727999 406.07174,281.936 C406.13574,282.144001 406.231739,282.329999 406.35974,282.494 C406.48774,282.658001 406.645739,282.788 406.83374,282.884 C407.021741,282.98 407.239738,283.028 407.48774,283.028 Z" id="A63"></path>
        </g>
    </g>
</svg>