<?xml version="1.0" encoding="UTF-8"?>
<svg width="14px" height="14px" viewBox="0 0 14 14" version="1.1" xmlns="http://www.w3.org/2000/svg" xmlns:xlink="http://www.w3.org/1999/xlink">
    <!-- Generator: Sketch 48.2 (47327) - http://www.bohemiancoding.com/sketch -->
    <title>e13</title>
    <desc>Created with Sketch.</desc>
    <defs></defs>
    <g id="e14" stroke="none" stroke-width="1" fill="none" fill-rule="evenodd">
        <path d="M12.1284211,0 C13.16,0 14,0.84 14,1.87157895 L14,12.1284211 C14,13.16 13.16,14 12.1284211,14 L1.87157895,14 C0.84,14 0,13.16 0,12.1284211 L0,1.87157895 C0,0.84 0.84,0 1.87157895,0 L12.1284211,0 Z M4,4 C4.55228475,4 5,3.55228475 5,3 C5,2.44771525 4.55228475,2 4,2 C3.44771525,2 3,2.44771525 3,3 C3,3.55228475 3.44771525,4 4,4 Z M2.29474371,11 L11.6639549,11 C11.8296403,11 11.9639549,10.8656855 11.9639549,10.7 C11.9639549,10.6515971 11.9522432,10.6039129 11.9298193,10.5610175 L8.74265738,4.46418752 C8.66589946,4.31735469 8.48464333,4.26054775 8.3378105,4.33730568 C8.29051833,4.362028 8.25067652,4.39891757 8.22239353,4.44417036 L6.23382358,7.62588227 C6.14601048,7.76638323 5.96092537,7.80909518 5.82042441,7.72128208 C5.78840735,7.70127142 5.76045534,7.67539687 5.73803646,7.6450174 L5.12560127,6.81511628 C5.02722013,6.68180157 4.83939354,6.65348232 4.70607883,6.75186346 C4.6798489,6.77122014 4.65694922,6.79472257 4.6382804,6.82144643 L2.04881047,10.5281954 C1.95392538,10.6640205 1.98711387,10.8510482 2.12293905,10.9459333 C2.17331781,10.981127 2.23328953,11 2.29474371,11 Z" id="e13" fill="#394959" fill-rule="nonzero"></path>
    </g>
</svg>