<?xml version="1.0" encoding="UTF-8"?>
<svg width="62px" height="16px" viewBox="0 0 62 16" version="1.1" xmlns="http://www.w3.org/2000/svg" xmlns:xlink="http://www.w3.org/1999/xlink">
    <!-- Generator: Sketch 46 (44423) - http://www.bohemiancoding.com/sketch -->
    <title>d51</title>
    <desc>Created with Sketch.</desc>
    <defs></defs>
    <g id="Page-1" stroke="none" stroke-width="1" fill="none" fill-rule="evenodd">
        <path d="M0.38,0.72 L0.38,15 L3.52,15 L3.52,10.4 L5.32,8.58 L9.62,15 L13.56,15 L7.44,6.36 L13.02,0.72 L9.1,0.72 L3.52,6.64 L3.52,0.72 L0.38,0.72 Z M14.4,7.84 C14.4400002,7.17333 14.6066652,6.6200022 14.9,6.18 C15.1933348,5.7399978 15.5666644,5.386668 16.02,5.12 C16.4733356,4.853332 16.9833305,4.6633339 17.55,4.55 C18.1166695,4.4366661 18.6866638,4.38 19.26,4.38 C19.7800026,4.38 20.306664,4.4166663 20.84,4.49 C21.373336,4.5633337 21.8599978,4.7066656 22.3,4.92 C22.7400022,5.1333344 23.0999986,5.4299981 23.38,5.81 C23.6600014,6.1900019 23.8,6.6933302 23.8,7.32 L23.8,12.7 C23.8,13.166669 23.8266664,13.6133312 23.88,14.04 C23.9333336,14.4666688 24.026666,14.7866656 24.16,15 L21.28,15 C21.2266664,14.8399992 21.1833335,14.6766675 21.15,14.51 C21.1166665,14.3433325 21.0933334,14.1733342 21.08,14 C20.6266644,14.466669 20.0933364,14.7933324 19.48,14.98 C18.8666636,15.1666676 18.2400032,15.26 17.6,15.26 C17.1066642,15.26 16.6466688,15.2000006 16.22,15.08 C15.7933312,14.9599994 15.4200016,14.7733346 15.1,14.52 C14.7799984,14.2666654 14.5300009,13.9466686 14.35,13.56 C14.1699991,13.1733314 14.08,12.713336 14.08,12.18 C14.08,11.5933304 14.1833323,11.1100019 14.39,10.73 C14.5966677,10.3499981 14.8633317,10.0466678 15.19,9.82 C15.5166683,9.5933322 15.8899979,9.4233339 16.31,9.31 C16.7300021,9.1966661 17.1533312,9.106667 17.58,9.04 C18.0066688,8.973333 18.4266646,8.9200002 18.84,8.88 C19.2533354,8.8399998 19.6199984,8.7800004 19.94,8.7 C20.2600016,8.6199996 20.5133324,8.5033341 20.7,8.35 C20.8866676,8.1966659 20.9733334,7.9733348 20.96,7.68 C20.96,7.3733318 20.9100005,7.1300009 20.81,6.95 C20.7099995,6.7699991 20.5766675,6.6300005 20.41,6.53 C20.2433325,6.4299995 20.0500011,6.3633335 19.83,6.33 C19.6099989,6.2966665 19.3733346,6.28 19.12,6.28 C18.5599972,6.28 18.1200016,6.3999988 17.8,6.64 C17.4799984,6.8800012 17.2933336,7.2799972 17.24,7.84 L14.4,7.84 Z M20.96,9.94 C20.8399994,10.0466672 20.6900009,10.1299997 20.51,10.19 C20.3299991,10.2500003 20.1366677,10.2999998 19.93,10.34 C19.7233323,10.3800002 19.5066678,10.4133332 19.28,10.44 C19.0533322,10.4666668 18.8266678,10.4999998 18.6,10.54 C18.3866656,10.5800002 18.1766677,10.633333 17.97,10.7 C17.7633323,10.766667 17.5833341,10.8566661 17.43,10.97 C17.2766659,11.0833339 17.1533338,11.2266658 17.06,11.4 C16.9666662,11.5733342 16.92,11.793332 16.92,12.06 C16.92,12.3133346 16.9666662,12.5266658 17.06,12.7 C17.1533338,12.8733342 17.2799992,13.0099995 17.44,13.11 C17.6000008,13.2100005 17.7866656,13.2799998 18,13.32 C18.2133344,13.3600002 18.4333322,13.38 18.66,13.38 C19.2200028,13.38 19.6533318,13.2866676 19.96,13.1 C20.2666682,12.9133324 20.4933326,12.6900013 20.64,12.43 C20.7866674,12.1699987 20.8766665,11.906668 20.91,11.64 C20.9433335,11.373332 20.96,11.1600008 20.96,11 L20.96,9.94 Z M26,4.66 L26,15 L28.84,15 L28.84,10.34 C28.84,9.873331 28.8866662,9.440002 28.98,9.04 C29.0733338,8.639998 29.2299989,8.2900015 29.45,7.99 C29.6700011,7.6899985 29.9599982,7.4533342 30.32,7.28 C30.6800018,7.1066658 31.1199974,7.02 31.64,7.02 C31.8133342,7.02 31.9933324,7.0299999 32.18,7.05 C32.3666676,7.0700001 32.526666,7.0933332 32.66,7.12 L32.66,4.48 C32.4333322,4.413333 32.2266676,4.38 32.04,4.38 C31.6799982,4.38 31.333335,4.4333328 31,4.54 C30.666665,4.6466672 30.3533348,4.7966657 30.06,4.99 C29.7666652,5.1833343 29.5066678,5.4166653 29.28,5.69 C29.0533322,5.9633347 28.873334,6.2599984 28.74,6.58 L28.7,6.58 L28.7,4.66 L26,4.66 Z M33.86,4.66 L33.86,15 L36.7,15 L36.7,9 C36.7,8.4933308 36.7733326,8.0833349 36.92,7.77 C37.0666674,7.4566651 37.2433323,7.2166675 37.45,7.05 C37.6566677,6.8833325 37.8699989,6.7700003 38.09,6.71 C38.3100011,6.6499997 38.486666,6.62 38.62,6.62 C39.0733356,6.62 39.4166655,6.6966659 39.65,6.85 C39.8833345,7.0033341 40.0499995,7.2066654 40.15,7.46 C40.2500005,7.7133346 40.3066666,7.9899985 40.32,8.29 C40.3333334,8.5900015 40.34,8.8933318 40.34,9.2 L40.34,15 L43.18,15 L43.18,9.24 C43.18,8.9199984 43.2033331,8.6033349 43.25,8.29 C43.2966669,7.9766651 43.3899993,7.6966679 43.53,7.45 C43.6700007,7.2033321 43.8633321,7.0033341 44.11,6.85 C44.3566679,6.6966659 44.679998,6.62 45.08,6.62 C45.480002,6.62 45.7966655,6.686666 46.03,6.82 C46.2633345,6.953334 46.4399994,7.1333322 46.56,7.36 C46.6800006,7.5866678 46.7533332,7.8533318 46.78,8.16 C46.8066668,8.4666682 46.82,8.7933316 46.82,9.14 L46.82,15 L49.66,15 L49.66,8.08 C49.66,7.41333 49.5666676,6.8433357 49.38,6.37 C49.1933324,5.8966643 48.933335,5.5133348 48.6,5.22 C48.266665,4.9266652 47.866669,4.713334 47.4,4.58 C46.933331,4.446666 46.4266694,4.38 45.88,4.38 C45.1599964,4.38 44.5366693,4.5533316 44.01,4.9 C43.4833307,5.2466684 43.0666682,5.6466644 42.76,6.1 C42.4799986,5.4599968 42.0700027,5.0133346 41.53,4.76 C40.9899973,4.5066654 40.3933366,4.38 39.74,4.38 C39.0599966,4.38 38.4566693,4.5266652 37.93,4.82 C37.4033307,5.1133348 36.9533352,5.526664 36.58,6.06 L36.54,6.06 L36.54,4.66 L33.86,4.66 Z M51.78,7.84 C51.8200002,7.17333 51.9866652,6.6200022 52.28,6.18 C52.5733348,5.7399978 52.9466644,5.386668 53.4,5.12 C53.8533356,4.853332 54.3633305,4.6633339 54.93,4.55 C55.4966695,4.4366661 56.0666638,4.38 56.64,4.38 C57.1600026,4.38 57.686664,4.4166663 58.22,4.49 C58.753336,4.5633337 59.2399978,4.7066656 59.68,4.92 C60.1200022,5.1333344 60.4799986,5.4299981 60.76,5.81 C61.0400014,6.1900019 61.18,6.6933302 61.18,7.32 L61.18,12.7 C61.18,13.166669 61.2066664,13.6133312 61.26,14.04 C61.3133336,14.4666688 61.406666,14.7866656 61.54,15 L58.66,15 C58.6066664,14.8399992 58.5633335,14.6766675 58.53,14.51 C58.4966665,14.3433325 58.4733334,14.1733342 58.46,14 C58.0066644,14.466669 57.4733364,14.7933324 56.86,14.98 C56.2466636,15.1666676 55.6200032,15.26 54.98,15.26 C54.4866642,15.26 54.0266688,15.2000006 53.6,15.08 C53.1733312,14.9599994 52.8000016,14.7733346 52.48,14.52 C52.1599984,14.2666654 51.9100009,13.9466686 51.73,13.56 C51.5499991,13.1733314 51.46,12.713336 51.46,12.18 C51.46,11.5933304 51.5633323,11.1100019 51.77,10.73 C51.9766677,10.3499981 52.2433317,10.0466678 52.57,9.82 C52.8966683,9.5933322 53.2699979,9.4233339 53.69,9.31 C54.1100021,9.1966661 54.5333312,9.106667 54.96,9.04 C55.3866688,8.973333 55.8066646,8.9200002 56.22,8.88 C56.6333354,8.8399998 56.9999984,8.7800004 57.32,8.7 C57.6400016,8.6199996 57.8933324,8.5033341 58.08,8.35 C58.2666676,8.1966659 58.3533334,7.9733348 58.34,7.68 C58.34,7.3733318 58.2900005,7.1300009 58.19,6.95 C58.0899995,6.7699991 57.9566675,6.6300005 57.79,6.53 C57.6233325,6.4299995 57.4300011,6.3633335 57.21,6.33 C56.9899989,6.2966665 56.7533346,6.28 56.5,6.28 C55.9399972,6.28 55.5000016,6.3999988 55.18,6.64 C54.8599984,6.8800012 54.6733336,7.2799972 54.62,7.84 L51.78,7.84 Z M58.34,9.94 C58.2199994,10.0466672 58.0700009,10.1299997 57.89,10.19 C57.7099991,10.2500003 57.5166677,10.2999998 57.31,10.34 C57.1033323,10.3800002 56.8866678,10.4133332 56.66,10.44 C56.4333322,10.4666668 56.2066678,10.4999998 55.98,10.54 C55.7666656,10.5800002 55.5566677,10.633333 55.35,10.7 C55.1433323,10.766667 54.9633341,10.8566661 54.81,10.97 C54.6566659,11.0833339 54.5333338,11.2266658 54.44,11.4 C54.3466662,11.5733342 54.3,11.793332 54.3,12.06 C54.3,12.3133346 54.3466662,12.5266658 54.44,12.7 C54.5333338,12.8733342 54.6599992,13.0099995 54.82,13.11 C54.9800008,13.2100005 55.1666656,13.2799998 55.38,13.32 C55.5933344,13.3600002 55.8133322,13.38 56.04,13.38 C56.6000028,13.38 57.0333318,13.2866676 57.34,13.1 C57.6466682,12.9133324 57.8733326,12.6900013 58.02,12.43 C58.1666674,12.1699987 58.2566665,11.906668 58.29,11.64 C58.3233335,11.373332 58.34,11.1600008 58.34,11 L58.34,9.94 Z" id="d51" fill="#419CF8"></path>
    </g>
</svg>