<?xml version="1.0" encoding="UTF-8"?>
<svg width="66px" height="18px" viewBox="0 0 66 18" version="1.1" xmlns="http://www.w3.org/2000/svg" xmlns:xlink="http://www.w3.org/1999/xlink">
    <!-- Generator: Sketch 46 (44423) - http://www.bohemiancoding.com/sketch -->
    <title>Karma</title>
    <desc>Created with Sketch.</desc>
    <defs></defs>
    <g id="Symbols" stroke="none" stroke-width="1" fill="none" fill-rule="evenodd">
        <g id="Builder-menu-" transform="translate(-23.000000, -12.000000)" fill="#FFFFFF">
            <g id="Builder-menu">
                <path d="M23.794,12.578 L23.794,29 L25.979,29 L25.979,23.25 L28.716,20.697 L34.65,29 L37.41,29 L30.211,19.202 L37.134,12.578 L34.305,12.578 L25.979,20.766 L25.979,12.578 L23.794,12.578 Z M49.347,28.954 C49.009665,29.1533343 48.542003,29.253 47.944,29.253 C47.4379975,29.253 47.0355015,29.1111681 46.7365,28.8275 C46.4374985,28.5438319 46.288,28.0800032 46.288,27.436 C45.7513306,28.0800032 45.1265036,28.5438319 44.4135,28.8275 C43.7004964,29.1111681 42.9300041,29.253 42.102,29.253 C41.5653306,29.253 41.0555024,29.1916673 40.5725,29.069 C40.0894976,28.9463327 39.6716684,28.754668 39.319,28.494 C38.9663316,28.233332 38.686501,27.8921688 38.4795,27.4705 C38.272499,27.0488312 38.169,26.539003 38.169,25.941 C38.169,25.26633 38.2839989,24.7143355 38.514,24.285 C38.7440012,23.8556645 39.0468315,23.5068347 39.4225,23.2385 C39.7981685,22.9701653 40.2274976,22.7670007 40.7105,22.629 C41.1935024,22.4909993 41.6879975,22.3760005 42.194,22.284 C42.7306693,22.1766661 43.2404976,22.0961669 43.7235,22.0425 C44.2065024,21.9888331 44.6319982,21.9121672 45,21.8125 C45.3680018,21.7128328 45.6593323,21.5671676 45.874,21.3755 C46.0886677,21.1838324 46.196,20.9040018 46.196,20.536 C46.196,20.1066645 46.1155008,19.761668 45.9545,19.501 C45.7934992,19.240332 45.5865013,19.0410007 45.3335,18.903 C45.0804987,18.7649993 44.7968349,18.6730002 44.4825,18.627 C44.1681651,18.5809998 43.8576682,18.558 43.551,18.558 C42.7229959,18.558 42.0330028,18.7151651 41.481,19.0295 C40.9289972,19.3438349 40.6300002,19.9379956 40.584,20.812 L38.629,20.812 C38.6596668,20.0759963 38.8129986,19.4550025 39.089,18.949 C39.3650014,18.4429975 39.7329977,18.0328349 40.193,17.7185 C40.6530023,17.4041651 41.1781637,17.1780007 41.7685,17.04 C42.3588363,16.9019993 42.99133,16.833 43.666,16.833 C44.2026694,16.833 44.7354974,16.8713329 45.2645,16.948 C45.7935026,17.0246671 46.2726645,17.1818321 46.702,17.4195 C47.1313355,17.6571679 47.476332,17.9906645 47.737,18.42 C47.997668,18.8493355 48.128,19.4089966 48.128,20.099 L48.128,26.217 C48.128,26.6770023 48.1548331,27.0143323 48.2085,27.229 C48.2621669,27.4436677 48.4423318,27.551 48.749,27.551 C48.9176675,27.551 49.1169989,27.5126671 49.347,27.436 L49.347,28.954 Z M46.173,22.859 C45.9276654,23.0430009 45.6056687,23.1771662 45.207,23.2615 C44.8083313,23.3458338 44.3905022,23.4148331 43.9535,23.4685 C43.5164978,23.5221669 43.0756689,23.5834997 42.631,23.6525 C42.1863311,23.7215003 41.7876684,23.8326659 41.435,23.986 C41.0823316,24.1393341 40.7948344,24.3578319 40.5725,24.6415 C40.3501656,24.9251681 40.239,25.3123309 40.239,25.803 C40.239,26.1250016 40.304166,26.3971656 40.4345,26.6195 C40.564834,26.8418344 40.733499,27.0219993 40.9405,27.16 C41.147501,27.2980007 41.3889986,27.3976664 41.665,27.459 C41.9410014,27.5203336 42.2323318,27.551 42.539,27.551 C43.1830032,27.551 43.7349977,27.4628342 44.195,27.2865 C44.6550023,27.1101658 45.0306652,26.8878347 45.322,26.6195 C45.6133348,26.3511653 45.8279993,26.0598349 45.966,25.7455 C46.1040007,25.4311651 46.173,25.1360014 46.173,24.86 L46.173,22.859 Z M51.095,17.109 L51.095,29 L53.05,29 L53.05,23.71 C53.05,22.9433295 53.1266659,22.2648363 53.28,21.6745 C53.4333341,21.0841637 53.678665,20.5820021 54.016,20.168 C54.353335,19.7539979 54.7979972,19.4396677 55.35,19.225 C55.9020028,19.0103323 56.5689961,18.903 57.351,18.903 L57.351,16.833 C56.2929947,16.8023332 55.4190035,17.0169977 54.729,17.477 C54.0389966,17.9370023 53.4563357,18.6499952 52.981,19.616 L52.935,19.616 L52.935,17.109 L51.095,17.109 Z M58.823,17.109 L58.823,29 L60.778,29 L60.778,21.594 C60.778,21.3639989 60.8354994,21.0765017 60.9505,20.7315 C61.0655006,20.3864983 61.2494987,20.0530016 61.5025,19.731 C61.7555013,19.4089984 62.0851646,19.1330011 62.4915,18.903 C62.8978354,18.6729988 63.3846638,18.558 63.952,18.558 C64.3966689,18.558 64.7608319,18.623166 65.0445,18.7535 C65.3281681,18.883834 65.5543325,19.0678321 65.723,19.3055 C65.8916675,19.5431679 66.0104997,19.8229984 66.0795,20.145 C66.1485003,20.4670016 66.183,20.8196648 66.183,21.203 L66.183,29 L68.138,29 L68.138,21.594 C68.138,20.6739954 68.4139972,19.9380028 68.966,19.386 C69.5180028,18.8339972 70.2769952,18.558 71.243,18.558 C71.7183357,18.558 72.1054985,18.6269993 72.4045,18.765 C72.7035015,18.9030007 72.9373325,19.0908321 73.106,19.3285 C73.2746675,19.5661679 73.3896664,19.8459984 73.451,20.168 C73.5123336,20.4900016 73.543,20.8349982 73.543,21.203 L73.543,29 L75.498,29 L75.498,20.283 C75.498,19.6696636 75.4021676,19.1445022 75.2105,18.7075 C75.0188324,18.2704978 74.7505017,17.9140014 74.4055,17.638 C74.0604983,17.3619986 73.6465024,17.158834 73.1635,17.0285 C72.6804976,16.898166 72.140003,16.833 71.542,16.833 C70.7599961,16.833 70.0431699,17.0093316 69.3915,17.362 C68.7398301,17.7146684 68.2146687,18.2129968 67.816,18.857 C67.5706654,18.1209963 67.149003,17.5996682 66.551,17.293 C65.952997,16.9863318 65.2860037,16.833 64.55,16.833 C62.8786583,16.833 61.5983378,17.5076599 60.709,18.857 L60.663,18.857 L60.663,17.109 L58.823,17.109 Z M88.976,28.954 C88.638665,29.1533343 88.171003,29.253 87.573,29.253 C87.0669975,29.253 86.6645015,29.1111681 86.3655,28.8275 C86.0664985,28.5438319 85.917,28.0800032 85.917,27.436 C85.3803307,28.0800032 84.7555036,28.5438319 84.0425,28.8275 C83.3294964,29.1111681 82.5590041,29.253 81.731,29.253 C81.1943307,29.253 80.6845024,29.1916673 80.2015,29.069 C79.7184976,28.9463327 79.3006684,28.754668 78.948,28.494 C78.5953316,28.233332 78.315501,27.8921688 78.1085,27.4705 C77.901499,27.0488312 77.798,26.539003 77.798,25.941 C77.798,25.26633 77.9129989,24.7143355 78.143,24.285 C78.3730012,23.8556645 78.6758315,23.5068347 79.0515,23.2385 C79.4271685,22.9701653 79.8564976,22.7670007 80.3395,22.629 C80.8225024,22.4909993 81.3169975,22.3760005 81.823,22.284 C82.3596694,22.1766661 82.8694976,22.0961669 83.3525,22.0425 C83.8355024,21.9888331 84.2609982,21.9121672 84.629,21.8125 C84.9970018,21.7128328 85.2883323,21.5671676 85.503,21.3755 C85.7176677,21.1838324 85.825,20.9040018 85.825,20.536 C85.825,20.1066645 85.7445008,19.761668 85.5835,19.501 C85.4224992,19.240332 85.2155013,19.0410007 84.9625,18.903 C84.7094987,18.7649993 84.4258349,18.6730002 84.1115,18.627 C83.7971651,18.5809998 83.4866682,18.558 83.18,18.558 C82.3519959,18.558 81.6620028,18.7151651 81.11,19.0295 C80.5579972,19.3438349 80.2590002,19.9379956 80.213,20.812 L78.258,20.812 C78.2886668,20.0759963 78.4419986,19.4550025 78.718,18.949 C78.9940014,18.4429975 79.3619977,18.0328349 79.822,17.7185 C80.2820023,17.4041651 80.8071637,17.1780007 81.3975,17.04 C81.9878363,16.9019993 82.62033,16.833 83.295,16.833 C83.8316694,16.833 84.3644974,16.8713329 84.8935,16.948 C85.4225026,17.0246671 85.9016645,17.1818321 86.331,17.4195 C86.7603355,17.6571679 87.105332,17.9906645 87.366,18.42 C87.626668,18.8493355 87.757,19.4089966 87.757,20.099 L87.757,26.217 C87.757,26.6770023 87.7838331,27.0143323 87.8375,27.229 C87.8911669,27.4436677 88.0713318,27.551 88.378,27.551 C88.5466675,27.551 88.7459989,27.5126671 88.976,27.436 L88.976,28.954 Z M85.802,22.859 C85.5566654,23.0430009 85.2346687,23.1771662 84.836,23.2615 C84.4373313,23.3458338 84.0195022,23.4148331 83.5825,23.4685 C83.1454978,23.5221669 82.7046689,23.5834997 82.26,23.6525 C81.8153311,23.7215003 81.4166684,23.8326659 81.064,23.986 C80.7113316,24.1393341 80.4238344,24.3578319 80.2015,24.6415 C79.9791656,24.9251681 79.868,25.3123309 79.868,25.803 C79.868,26.1250016 79.933166,26.3971656 80.0635,26.6195 C80.193834,26.8418344 80.362499,27.0219993 80.5695,27.16 C80.776501,27.2980007 81.0179986,27.3976664 81.294,27.459 C81.5700014,27.5203336 81.8613318,27.551 82.168,27.551 C82.8120032,27.551 83.3639977,27.4628342 83.824,27.2865 C84.2840023,27.1101658 84.6596652,26.8878347 84.951,26.6195 C85.2423348,26.3511653 85.4569993,26.0598349 85.595,25.7455 C85.7330007,25.4311651 85.802,25.1360014 85.802,24.86 L85.802,22.859 Z" id="Karma"></path>
            </g>
        </g>
    </g>
</svg>