<?xml version="1.0" encoding="UTF-8"?>
<svg width="15px" height="13px" viewBox="0 0 15 13" version="1.1" xmlns="http://www.w3.org/2000/svg" xmlns:xlink="http://www.w3.org/1999/xlink">
    <!-- Generator: Sketch 46 (44423) - http://www.bohemiancoding.com/sketch -->
    <title>A7</title>
    <desc>Created with Sketch.</desc>
    <defs></defs>
    <g id="Symbols" stroke="none" stroke-width="1" fill="none" fill-rule="evenodd">
        <g id="TEXT-GIZMO-NEW" transform="translate(-85.000000, -11.000000)" fill="#394959">
            <path d="M86,16.25 L99,16.25 L99,16.25 C99.5522847,16.25 100,16.6977153 100,17.25 C100,17.8022847 99.5522847,18.25 99,18.25 L86,18.25 C85.4477153,18.25 85,17.8022847 85,17.25 L85,17.25 L85,17.25 C85,16.6977153 85.4477153,16.25 86,16.25 L86,16.25 Z M86,11 L95,11 C95.5522847,11 96,11.4477153 96,12 L96,12 C96,12.5522847 95.5522847,13 95,13 L86,13 C85.4477153,13 85,12.5522847 85,12 L85,12 L85,12 C85,11.4477153 85.4477153,11 86,11 L86,11 Z M86,21.5 L95,21.5 C95.5522847,21.5 96,21.9477153 96,22.5 C96,23.0522847 95.5522847,23.5 95,23.5 L86,23.5 C85.4477153,23.5 85,23.0522847 85,22.5 C85,21.9477153 85.4477153,21.5 86,21.5 L86,21.5 Z" id="A7"></path>
        </g>
    </g>
</svg>