<?xml version="1.0" encoding="UTF-8"?>
<svg width="24px" height="23px" viewBox="0 0 24 23" version="1.1" xmlns="http://www.w3.org/2000/svg" xmlns:xlink="http://www.w3.org/1999/xlink">
    <!-- Generator: Sketch 49 (51002) - http://www.bohemiancoding.com/sketch -->
    <title>Artboard</title>
    <desc>Created with Sketch.</desc>
    <defs></defs>
    <g id="Artboard" stroke="none" stroke-width="1" fill="none" fill-rule="evenodd">
        <g id="f5" transform="translate(7.000000, 4.000000)" fill="#808A94" fill-rule="nonzero">
            <path d="M5.5,11.4285714 C6.25625,11.4285714 6.875,10.7857143 6.875,10 C6.875,9.21428571 6.25625,8.57142857 5.5,8.57142857 C4.74375,8.57142857 4.125,9.21428571 4.125,10 C4.125,10.7857143 4.74375,11.4285714 5.5,11.4285714 Z M9.625,5 L8.9375,5 L8.9375,3.57142857 C8.9375,1.6 7.3975,0 5.5,0 C3.6025,0 2.0625,1.6 2.0625,3.57142857 L3.36875,3.57142857 C3.36875,2.35 4.324375,1.35714286 5.5,1.35714286 C6.675625,1.35714286 7.63125,2.35 7.63125,3.57142857 L7.63125,5 L1.375,5 C0.61875,5 0,5.64285714 0,6.42857143 L0,13.5714286 C0,14.3571429 0.61875,15 1.375,15 L9.625,15 C10.38125,15 11,14.3571429 11,13.5714286 L11,6.42857143 C11,5.64285714 10.38125,5 9.625,5 Z M9.625,13.5714286 L1.375,13.5714286 L1.375,6.42857143 L9.625,6.42857143 L9.625,13.5714286 Z" id="f4"></path>
        </g>
    </g>
</svg>