<?xml version="1.0" encoding="UTF-8"?>
<svg width="14px" height="14px" viewBox="0 0 14 14" version="1.1" xmlns="http://www.w3.org/2000/svg" xmlns:xlink="http://www.w3.org/1999/xlink">
    <!-- Generator: Sketch 48.2 (47327) - http://www.bohemiancoding.com/sketch -->
    <title>c312</title>
    <desc>Created with Sketch.</desc>
    <defs></defs>
    <g id="Page-1" stroke="none" stroke-width="1" fill="none" fill-rule="evenodd">
        <g id="c312" fill="#394959" fill-rule="nonzero">
            <path d="M6.95345711,12.4605315 L1.27414658,6.78122145 L0.302265398,7.08198447 L0.000210373333,8.05790114 L5.67814916,13.7358394 C5.85062213,13.9057125 6.07538093,13.9997887 6.31580313,13.9997887 C6.55622532,13.9997887 6.78096817,13.9057125 6.95084122,13.7358394 C7.12331419,13.5659823 7.21740631,13.3412235 7.21740631,13.1008013 C7.21740631,12.8603791 7.12331421,12.6330204 6.95345711,12.4605315 Z" id="c311" transform="translate(3.608808, 10.390505) scale(-1, 1) translate(-3.608808, -10.390505) "></path>
            <path d="M13.9967446,4.73232096 C14.012424,4.63301302 13.9706177,4.53370507 13.889605,4.47621939 L11.710078,2.93434609 L11.7414367,0.263527078 C11.7414367,0.164219131 11.6865669,0.0727588411 11.5977065,0.0283207019 C11.511478,-0.0161014176 11.4043224,-0.00826970187 11.3233097,0.0518478101 L9.18298909,1.64597469 L6.65590009,0.788809666 C6.56182393,0.757450998 6.4572842,0.780962061 6.3867191,0.851527105 C6.31617002,0.922092201 6.29264299,1.02661597 6.32400166,1.12069215 L7.18118265,3.64779696 L5.58442391,5.79071777 C5.52432234,5.87173048 5.51649063,5.97888606 5.56091285,6.06513053 C5.60533505,6.15397492 5.68896362,6.20101302 5.79610328,6.20886067 L8.46955413,6.17488606 L10.0114112,8.35439663 C10.0610652,8.42496172 10.1420779,8.4641681 10.2257065,8.4641681 C10.23877,8.4641681 10.2518494,8.4641681 10.2675287,8.4615522 C10.3642208,8.44587283 10.4452335,8.37530773 10.4765922,8.28123158 L11.265824,5.73061618 L13.8164239,4.94138442 C13.9105161,4.91002572 13.9810653,4.82901304 13.9967446,4.73232096 Z" id="c310" transform="translate(9.766295, 4.232084) scale(-1, 1) translate(-9.766295, -4.232084) "></path>
        </g>
    </g>
</svg>