<?xml version="1.0" encoding="UTF-8"?>
<svg width="3px" height="13px" viewBox="0 0 3 13" version="1.1" xmlns="http://www.w3.org/2000/svg" xmlns:xlink="http://www.w3.org/1999/xlink">
    <!-- Generator: Sketch 46 (44423) - http://www.bohemiancoding.com/sketch -->
    <title>Combined Shape</title>
    <desc>Created with Sketch.</desc>
    <defs></defs>
    <g id="Symbols" stroke="none" stroke-width="1" fill="none" fill-rule="evenodd">
        <g id="image-gizmo" transform="translate(-185.000000, -11.000000)" fill="#394959">
            <g id="Group-6-Copy" transform="translate(185.000000, 11.000000)">
                <g id="Group-9">
                    <path d="M1.5,8 C0.671572875,8 0,7.32842712 0,6.5 C0,5.67157288 0.671572875,5 1.5,5 C2.32842712,5 3,5.67157288 3,6.5 C3,7.32842712 2.32842712,8 1.5,8 Z M1.5,3 C0.671572875,3 0,2.32842712 0,1.5 C0,0.671572875 0.671572875,0 1.5,0 C2.32842712,0 3,0.671572875 3,1.5 C3,2.32842712 2.32842712,3 1.5,3 Z M1.5,13 C0.671572875,13 0,12.3284271 0,11.5 C0,10.6715729 0.671572875,10 1.5,10 C2.32842712,10 3,10.6715729 3,11.5 C3,12.3284271 2.32842712,13 1.5,13 Z" id="Combined-Shape"></path>
                </g>
            </g>
        </g>
    </g>
</svg>