<?xml version="1.0" encoding="UTF-8"?>
<svg width="15px" height="21px" viewBox="0 0 15 21" version="1.1" xmlns="http://www.w3.org/2000/svg" xmlns:xlink="http://www.w3.org/1999/xlink">
    <!-- Generator: Sketch 46 (44423) - http://www.bohemiancoding.com/sketch -->
    <title>noun_961471_cc</title>
    <desc>Created with Sketch.</desc>
    <defs></defs>
    <g id="Symbols" stroke="none" stroke-width="1" fill="none" fill-rule="evenodd">
        <g id="Builder-menu-" transform="translate(-1832.000000, -11.000000)" fill-rule="nonzero" fill="#FFFFFF">
            <g id="Builder-menu">
                <g id="Group-5" transform="translate(1832.000000, 11.000000)">
                    <g id="noun_961471_cc">
                        <path d="M5.08470249,18.5712031 L9.66888042,18.5712031 C9.4746356,19.6305975 8.54226042,20.4629788 7.37679146,20.4629788 C6.21132249,20.4629788 5.27894732,19.6305975 5.08470249,18.5712031 Z M7.37679146,2.68028711 C7.37679146,2.68028711 7.37679146,2.68028711 7.37679146,2.68028711 C8.03722387,2.68028711 8.54226042,2.15058991 8.54226042,1.54522168 C8.54226042,0.902017935 8.03722387,0.41015625 7.37679146,0.41015625 C6.71635904,0.41015625 6.21132249,0.902017935 6.21132249,1.54522168 C6.21132249,2.15058991 6.71635904,2.68028711 7.37679146,2.68028711 Z M13.9811156,15.9227171 L13.9811156,8.7718049 C13.9811156,6.9178647 13.0098915,5.17743105 11.4559328,4.23154319 C9.04729698,2.79379365 6.40556732,2.64245159 4.19117628,3.85318805 C2.09333214,4.98825348 0.811316281,7.14487779 0.811316281,9.49067967 L0.811316281,15.9227171 L0.0343369704,15.9227171 L0.0343369704,17.8144928 L14.7969439,17.8144928 L14.7969439,15.9227171 L13.9811156,15.9227171 Z" id="Shape"></path>
                    </g>
                </g>
            </g>
        </g>
    </g>
</svg>