<?xml version="1.0" encoding="UTF-8"?>
<svg width="12px" height="14px" viewBox="0 0 12 14" version="1.1" xmlns="http://www.w3.org/2000/svg" xmlns:xlink="http://www.w3.org/1999/xlink">
    <!-- Generator: Sketch 46 (44423) - http://www.bohemiancoding.com/sketch -->
    <title>d46</title>
    <desc>Created with Sketch.</desc>
    <defs></defs>
    <g id="Page-1" stroke="none" stroke-width="1" fill="none" fill-rule="evenodd">
        <g id="d45" fill-rule="nonzero" fill="#419CF8">
            <path d="M10.9105263,9.30966083 L10.9105263,6.3229437 C10.9118011,4.47087899 9.84659181,2.78577642 8.17894737,2.00173595 L8.17894737,2.00173595 C8.17894737,0.89620771 7.28822966,0 6.18947368,0 C5.09071771,0 4.2,0.89620771 4.2,2.00173595 L4.2,2.00173595 C2.52619628,2.78114201 1.45421332,4.46721404 1.45263158,6.3229437 L1.45263158,9.30966083 L0.884210526,10.5329439 L0,10.5329439 L0,11.8038874 L4.32631579,11.8038874 L4.32631579,11.8674345 C4.41563696,12.8488505 5.23367269,13.6 6.21315789,13.6 C7.1926431,13.6 8.01067883,12.8488505 8.1,11.8674345 L8.1,11.8038874 L12,11.8038874 L12,10.5329439 L11.4947368,10.5329439 L10.9105263,9.30966083 Z M6.18947368,1.25505666 C6.44104374,1.25639507 6.6740109,1.38862244 6.80526316,1.60456612 L6.18947368,1.55690574 L5.57368421,1.60456612 C5.70493647,1.38862244 5.93790363,1.25639507 6.18947368,1.25505666 L6.18947368,1.25505666 Z M2.71578947,9.59562311 L2.71578947,6.3229437 C2.83893703,4.4882462 4.3539668,3.06335449 6.18157895,3.06335449 C8.0091911,3.06335449 9.52422086,4.4882462 9.64736842,6.3229437 L9.64736842,9.59562311 L10.0894737,10.5329439 L2.27368421,10.5329439 L2.71578947,9.59562311 Z M6.85263158,11.8674345 C6.80370945,12.1758261 6.53932956,12.4027438 6.22894737,12.4027438 C5.91856518,12.4027438 5.65418529,12.1758261 5.60526316,11.8674345 L5.60526316,11.8038874 L6.85263158,11.8038874 L6.85263158,11.8674345 Z" id="d46"></path>
        </g>
    </g>
</svg>