<?xml version="1.0" encoding="UTF-8"?>
<svg width="10px" height="12px" viewBox="0 0 10 12" version="1.1" xmlns="http://www.w3.org/2000/svg" xmlns:xlink="http://www.w3.org/1999/xlink">
    <!-- Generator: Sketch 46 (44423) - http://www.bohemiancoding.com/sketch -->
    <title>A61</title>
    <desc>Created with Sketch.</desc>
    <defs></defs>
    <g id="text" stroke="none" stroke-width="1" fill="none" fill-rule="evenodd">
        <g id="Text-Gizmo-drop-down" transform="translate(-397.000000, -306.000000)" fill="#394959">
            <path d="M397.24374,306.576 L402.39574,306.576 C403.11041,306.576 403.718404,306.679999 404.21974,306.888 C404.721075,307.096001 405.129071,307.370665 405.44374,307.712 C405.758408,308.053335 405.987739,308.442664 406.13174,308.88 C406.27574,309.317336 406.34774,309.770664 406.34774,310.24 C406.34774,310.698669 406.27574,311.149331 406.13174,311.592 C405.987739,312.034669 405.758408,312.426665 405.44374,312.768 C405.129071,313.109335 404.721075,313.383999 404.21974,313.592 C403.718404,313.800001 403.11041,313.904 402.39574,313.904 L399.75574,313.904 L399.75574,318 L397.24374,318 L397.24374,306.576 Z M399.75574,311.952 L401.70774,311.952 C401.995741,311.952 402.273072,311.930667 402.53974,311.888 C402.806408,311.845333 403.041072,311.762667 403.24374,311.64 C403.446407,311.517333 403.609072,311.344001 403.73174,311.12 C403.854407,310.895999 403.91574,310.602668 403.91574,310.24 C403.91574,309.877332 403.854407,309.584001 403.73174,309.36 C403.609072,309.135999 403.446407,308.962667 403.24374,308.84 C403.041072,308.717333 402.806408,308.634667 402.53974,308.592 C402.273072,308.549333 401.995741,308.528 401.70774,308.528 L399.75574,308.528 L399.75574,311.952 Z" id="A61"></path>
        </g>
    </g>
</svg>