<?xml version="1.0" encoding="UTF-8"?>
<svg width="64px" height="64px" viewBox="0 0 64 64" version="1.1" xmlns="http://www.w3.org/2000/svg" xmlns:xlink="http://www.w3.org/1999/xlink">
    <!-- Generator: Sketch 48.2 (47327) - http://www.bohemiancoding.com/sketch -->
    <title>e254</title>
    <desc>Created with Sketch.</desc>
    <defs></defs>
    <g id="e256" stroke="none" stroke-width="1" fill="none" fill-rule="evenodd" transform="translate(-36.000000, -36.000000)">
        <g id="e254" transform="translate(36.000000, 36.000000)" fill="#000000">
            <path d="M32,63.5 C14.6030304,63.5 0.5,49.3969696 0.5,32 C0.5,14.6030304 14.6030304,0.5 32,0.5 C49.3969696,0.5 63.5,14.6030304 63.5,32 C63.5,49.3969696 49.3969696,63.5 32,63.5 Z M32,60.5 C47.7401154,60.5 60.5,47.7401154 60.5,32 C60.5,16.2598846 47.7401154,3.5 32,3.5 C16.2598846,3.5 3.5,16.2598846 3.5,32 C3.5,47.7401154 16.2598846,60.5 32,60.5 Z" id="e250" fill-rule="nonzero"></path>
            <polygon id="e251" transform="translate(33.727273, 32.500000) rotate(90.000000) translate(-33.727273, -32.500000) " points="33.7272727 26 43.4545455 39 24 39"></polygon>
        </g>
    </g>
</svg>