<?xml version="1.0" encoding="UTF-8"?>
<svg width="12px" height="17px" viewBox="0 0 12 17" version="1.1" xmlns="http://www.w3.org/2000/svg" xmlns:xlink="http://www.w3.org/1999/xlink">
    <!-- Generator: Sketch 46 (44423) - http://www.bohemiancoding.com/sketch -->
    <title>Shape</title>
    <desc>Created with Sketch.</desc>
    <defs></defs>
    <g id="Add-panel" stroke="none" stroke-width="1" fill="none" fill-rule="evenodd">
        <g id="Laptop" transform="translate(-103.000000, -657.000000)" fill-rule="nonzero" fill="#747F8A">
            <path d="M113.5,662.454545 L112.75,662.454545 L112.75,660.896104 C112.75,658.745455 111.07,657 109,657 C106.93,657 105.25,658.745455 105.25,660.896104 L105.25,662.454545 L104.5,662.454545 C103.675,662.454545 103,663.155844 103,664.012987 L103,671.805195 C103,672.662338 103.675,673.363636 104.5,673.363636 L113.5,673.363636 C114.325,673.363636 115,672.662338 115,671.805195 L115,664.012987 C115,663.155844 114.325,662.454545 113.5,662.454545 Z M109,669.467532 C108.175,669.467532 107.5,668.766234 107.5,667.909091 C107.5,667.051948 108.175,666.350649 109,666.350649 C109.825,666.350649 110.5,667.051948 110.5,667.909091 C110.5,668.766234 109.825,669.467532 109,669.467532 Z M111.25,662.454545 L106.75,662.454545 L106.75,660.926662 C106.75,659.620321 107.758871,658.558442 109,658.558442 C110.241129,658.558442 111.25,659.620321 111.25,660.926662 L111.25,662.454545 Z" id="Shape"></path>
        </g>
    </g>
</svg>