<?xml version="1.0" encoding="UTF-8"?>
<svg width="41px" height="40px" viewBox="0 0 41 40" version="1.1" xmlns="http://www.w3.org/2000/svg" xmlns:xlink="http://www.w3.org/1999/xlink">
    <!-- Generator: Sketch 46 (44423) - http://www.bohemiancoding.com/sketch -->
    <title>c148</title>
    <desc>Created with Sketch.</desc>
    <defs>
        <rect id="path-1" x="1" y="0" width="39.3400002" height="39.4500008" rx="4"></rect>
        <linearGradient x1="33.9454113%" y1="23.7278838%" x2="76.8207146%" y2="93.5789754%" id="linearGradient-3">
            <stop stop-color="#FA5F01" offset="0%"></stop>
            <stop stop-color="#FA8101" offset="100%"></stop>
        </linearGradient>
    </defs>
    <g id="Page-1" stroke="none" stroke-width="1" fill="none" fill-rule="evenodd">
        <g id="c165" transform="translate(-3.000000, -3.000000)">
            <g id="c148" transform="translate(3.000000, 3.000000)">
                <g id="c146">
                    <g id="c141">
                        <mask id="mask-2" fill="white">
                            <use xlink:href="#path-1"></use>
                        </mask>
                        <use id="c139" fill="#FA8101" transform="translate(20.670000, 19.725000) rotate(90.000000) translate(-20.670000, -19.725000) " xlink:href="#path-1"></use>
                        <path d="M21.3455811,6.5 C20.5943655,7.5 20.4454257,8 20.8987615,8 C21.3520973,8 28.0525101,12 41,20 L41,33 L20,21 L21.3455811,18 L24.5,17 L24.5,14.5 L18,11.5 L21.3455811,6.5 Z" id="c140" fill="url(#linearGradient-3)" mask="url(#mask-2)"></path>
                    </g>
                    <g id="c145" transform="translate(14.000000, 26.000000)" fill="#FFFFFF">
                        <g id="c144" transform="translate(0.000000, 0.400000)">
                            <rect id="c142" x="4" y="0" width="6.90697674" height="1.53333333"></rect>
                            <rect id="c143" x="0" y="4" width="14.5813953" height="1.53333333"></rect>
                        </g>
                    </g>
                </g>
                <path d="M21.4918554,12.475485 C19.6311781,11.9918728 19.0328105,11.491867 19.0328105,10.7131694 C19.0328105,9.81971645 19.8606889,9.1967584 21.2459509,9.1967584 C22.7049842,9.1967584 23.2459741,9.89348779 23.295155,10.9180898 L25.1066514,10.9180898 C25.0492737,9.50823742 24.188608,8.21314043 22.4754734,7.79510279 L22.4754734,6 L20.0164284,6 L20.0164284,7.77051234 C18.4262461,8.11477863 17.1475427,9.1475775 17.1475427,10.7295631 C17.1475427,12.6230277 18.7131346,13.5656615 21.0000464,14.1148482 C23.0492505,14.6066572 23.4590913,15.3279771 23.4590913,16.090281 C23.4590913,16.6558613 23.0574473,17.5575111 21.2459509,17.5575111 C19.5574067,17.5575111 18.8934646,16.803404 18.8032996,15.8361797 L17,15.8361797 C17.0983618,17.6312825 18.4426397,18.6394909 20.0164284,18.9755604 L20.0164284,20.7542695 L22.4754734,20.7542695 L22.4754734,18.991954 C24.0738526,18.6886718 25.3443591,17.7624315 25.3443591,16.0820842 C25.3443591,13.7541883 23.3525327,12.9590971 21.4918554,12.475485 Z" id="c147" fill="#FFFFFF" fill-rule="nonzero"></path>
            </g>
        </g>
    </g>
</svg>