<?xml version="1.0" encoding="UTF-8"?>
<svg width="14px" height="11px" viewBox="0 0 14 11" version="1.1" xmlns="http://www.w3.org/2000/svg" xmlns:xlink="http://www.w3.org/1999/xlink">
    <!-- Generator: Sketch 46 (44423) - http://www.bohemiancoding.com/sketch -->
    <title>d40</title>
    <desc>Created with Sketch.</desc>
    <defs></defs>
    <g id="Page-1" stroke="none" stroke-width="1" fill="none" fill-rule="evenodd">
        <path d="M13.6016837,0.39816395 L13.6016837,0.39816395 L13.6016837,0.39816395 C14.1296302,0.936464402 14.1331986,1.79719369 13.6097336,2.33985306 L7.56960687,8.60145807 L5.96400456,10.2676163 L5.96400456,10.2676163 C5.58077399,10.6653006 4.94771743,10.6770176 4.55003317,10.293787 C4.54077298,10.2848634 4.5316858,10.275762 4.52277669,10.2664878 L2.92328304,8.60145807 L0.430877102,6.02061374 L0.430877102,6.02061374 C-0.132236423,5.43751917 -0.144947041,4.51709223 0.401850357,3.91867037 L0.401850357,3.91867037 L0.401850357,3.91867037 C0.89855101,3.37507501 1.74187755,3.33705934 2.28547291,3.83376 C2.31119263,3.85726094 2.33598132,3.88176097 2.3597819,3.90720367 L5.24280418,6.98914029 L11.7051508,0.398290874 L11.7051508,0.398290874 C12.2186867,-0.125456602 13.059571,-0.133734726 13.5833185,0.379801167 C13.5894999,0.385862094 13.595622,0.391983314 13.6016837,0.39816395 Z" id="d40" fill="#419CF8"></path>
    </g>
</svg>