<?xml version="1.0" encoding="UTF-8"?>
<svg width="9px" height="9px" viewBox="0 0 9 9" version="1.1" xmlns="http://www.w3.org/2000/svg" xmlns:xlink="http://www.w3.org/1999/xlink">
    <!-- Generator: Sketch 48.2 (47327) - http://www.bohemiancoding.com/sketch -->
    <title>c345</title>
    <desc>Created with Sketch.</desc>
    <defs></defs>
    <g id="responsive-layout" stroke="none" stroke-width="1" fill="none" fill-rule="evenodd" transform="translate(-435.000000, -211.000000)">
        <g id="c345" transform="translate(435.000000, 211.000000)" fill="#394959" fill-rule="nonzero">
            <path d="M8.20532789,1.80541633 C8.20532789,1.91800794 8.13264289,2.00689605 8.04219046,2.00689605 L0.164752647,2.00689605 C0.0726849911,2.00689605 0,1.91603265 0,1.80541633 L0,0.501724013 C0,0.225183219 0.184135311,-1.40352895e-16 0.410266394,0 L7.79506149,0 C8.02119257,0 8.20532789,0.225183219 8.20532789,0.501724013 L8.20532789,1.80541633 Z M1.78097431,3.38757466 C1.86788829,3.38757466 1.9365046,3.45859771 1.9365046,3.54856025 L1.9365046,8.83898861 C1.9365046,8.92895114 1.86636349,8.9999742 1.78097431,8.9999742 L0.38730092,8.9999742 C0.173827972,8.9999742 0,8.82004913 0,8.59908852 L0,3.54856025 C0,3.45859771 0.0701411114,3.38757466 0.155530291,3.38757466 L1.78097431,3.38757466 Z M3.27278035,3.54700776 C3.27278035,3.45704523 3.34139666,3.38602217 3.42831064,3.38760046 L8.15216202,3.38760046 C8.239076,3.38760046 8.30769231,3.46020181 8.30769231,3.54858605 L8.30769231,8.59911432 C8.30769231,8.82007493 8.13386434,9 7.92039139,9 L3.42831064,9 C3.34139666,9 3.27278035,8.92739866 3.27278035,8.83901441 L3.27278035,3.54700776 Z" id="c344"></path>
        </g>
    </g>
</svg>