<?xml version="1.0" encoding="UTF-8"?>
<svg width="15px" height="13px" viewBox="0 0 15 13" version="1.1" xmlns="http://www.w3.org/2000/svg" xmlns:xlink="http://www.w3.org/1999/xlink">
    <!-- Generator: Sketch 46 (44423) - http://www.bohemiancoding.com/sketch -->
    <title>A77</title>
    <desc>Created with Sketch.</desc>
    <defs></defs>
    <g id="text" stroke="none" stroke-width="1" fill="none" fill-rule="evenodd">
        <g id="Text-Gizmo-drop-down" transform="translate(-1072.000000, -271.000000)" fill="#394959">
            <path d="M1073,276.25 L1086,276.25 L1086,276.25 C1086.55228,276.25 1087,276.697715 1087,277.25 C1087,277.802285 1086.55228,278.25 1086,278.25 L1073,278.25 C1072.44772,278.25 1072,277.802285 1072,277.25 L1072,277.25 L1072,277.25 C1072,276.697715 1072.44772,276.25 1073,276.25 L1073,276.25 Z M1073,271 L1082,271 C1082.55228,271 1083,271.447715 1083,272 L1083,272 C1083,272.552285 1082.55228,273 1082,273 L1073,273 C1072.44772,273 1072,272.552285 1072,272 L1072,272 L1072,272 C1072,271.447715 1072.44772,271 1073,271 L1073,271 Z M1073,281.5 L1082,281.5 C1082.55228,281.5 1083,281.947715 1083,282.5 C1083,283.052285 1082.55228,283.5 1082,283.5 L1073,283.5 C1072.44772,283.5 1072,283.052285 1072,282.5 C1072,281.947715 1072.44772,281.5 1073,281.5 L1073,281.5 Z" id="A77" transform="translate(1079.500000, 277.250000) scale(-1, 1) translate(-1079.500000, -277.250000) "></path>
        </g>
    </g>
</svg>