<?xml version="1.0" encoding="UTF-8"?>
<svg width="15px" height="15px" viewBox="0 0 15 15" version="1.1" xmlns="http://www.w3.org/2000/svg" xmlns:xlink="http://www.w3.org/1999/xlink">
    <!-- Generator: Sketch 46 (44423) - http://www.bohemiancoding.com/sketch -->
    <title>ic_search_black_48px</title>
    <desc>Created with Sketch.</desc>
    <defs></defs>
    <g id="element-panel-search" stroke="none" stroke-width="1" fill="none" fill-rule="evenodd">
        <g id="element-panel-search-icon" transform="translate(-526.000000, -180.000000)" fill-rule="nonzero" fill="#445363">
            <g id="element-search-icon" transform="translate(526.000000, 180.000000)">
                <path d="M10.7204117,9.43396226 L10.0428816,9.43396226 L9.80274443,9.20240137 C10.6432247,8.22469983 11.1492281,6.95540309 11.1492281,5.57461407 C11.1492281,2.49571184 8.6535163,0 5.57461407,0 C2.49571184,0 0,2.49571184 0,5.57461407 C0,8.6535163 2.49571184,11.1492281 5.57461407,11.1492281 C6.95540309,11.1492281 8.22469983,10.6432247 9.20240137,9.80274443 L9.43396226,10.0428816 L9.43396226,10.7204117 L13.7221269,15 L15,13.7221269 L10.7204117,9.43396226 Z M5.57461407,9.43396226 C3.43910806,9.43396226 1.71526587,7.71012007 1.71526587,5.57461407 C1.71526587,3.43910806 3.43910806,1.71526587 5.57461407,1.71526587 C7.71012007,1.71526587 9.43396226,3.43910806 9.43396226,5.57461407 C9.43396226,7.71012007 7.71012007,9.43396226 5.57461407,9.43396226 Z" id="Shape"></path>
            </g>
        </g>
    </g>
</svg>