<?xml version="1.0" encoding="UTF-8"?>
<svg width="16px" height="16px" viewBox="0 0 16 16" version="1.1" xmlns="http://www.w3.org/2000/svg" xmlns:xlink="http://www.w3.org/1999/xlink">
    <!-- Generator: Sketch 46 (44423) - http://www.bohemiancoding.com/sketch -->
    <title>Combined Shape Copy 2</title>
    <desc>Created with Sketch.</desc>
    <defs></defs>
    <g id="Symbols" stroke="none" stroke-width="1" fill="none" fill-rule="evenodd">
        <g id="Section-gizmo" transform="translate(-149.000000, -10.000000)" fill="#394959">
            <g id="Group-4">
                <path d="M155.589385,10 L157.720605,10 L158.25341,11.8593809 C158.736806,11.9925778 159.197031,12.1821433 159.62348,12.4248067 L161.308884,11.4896794 L162.820311,13.001106 L161.885183,14.6865097 C162.127822,15.1128964 162.317437,15.5732052 162.450609,16.0565798 L164.30999,16.5893849 L164.30999,18.7206051 L162.450609,19.2534101 C162.317437,19.7368266 162.127822,20.1970275 161.885183,20.6234803 L162.820311,22.3089014 L161.308884,23.8203106 L159.62348,22.8851833 C159.197031,23.1278467 158.736806,23.317447 158.25341,23.4506091 L157.720605,25.3100004 L155.589385,25.3100004 L155.05658,23.4506091 C154.573181,23.317447 154.112959,23.1278467 153.68651,22.8851833 L152.001106,23.8203106 L150.489679,22.3089014 L151.424807,20.6234803 C151.182171,20.1970275 150.99255,19.7368266 150.859381,19.2534101 L149,18.7206051 L149,16.5893849 L150.859381,16.0565798 C150.99255,15.5732052 151.182171,15.1128964 151.424807,14.6865097 L150.489679,13.001106 L152.001106,11.4896794 L153.68651,12.4248067 C154.112959,12.1821433 154.573181,11.9925778 155.05658,11.8593809 L155.589385,10 Z M156.654995,15.2193148 C155.309807,15.2193148 154.219315,16.3098175 154.219315,17.654995 C154.219315,19.0001759 155.309807,20.0906926 156.654995,20.0906926 C158.000183,20.0906926 159.090675,19.0001759 159.090675,17.654995 C159.090675,16.3098175 158.000183,15.2193148 156.654995,15.2193148 Z" id="Combined-Shape-Copy-2"></path>
            </g>
        </g>
    </g>
</svg>