<?xml version="1.0" encoding="UTF-8"?>
<svg width="14px" height="14px" viewBox="0 0 14 14" version="1.1" xmlns="http://www.w3.org/2000/svg" xmlns:xlink="http://www.w3.org/1999/xlink">
    <!-- Generator: Sketch 46 (44423) - http://www.bohemiancoding.com/sketch -->
    <title>Combined Shape Copy 3</title>
    <desc>Created with Sketch.</desc>
    <defs></defs>
    <g id="Symbols" stroke="none" stroke-width="1" fill="none" fill-rule="evenodd">
        <g id="image-gizmo" transform="translate(-126.000000, -10.000000)" fill="#394959">
            <path d="M132.025568,10 L133.974432,10 L134.461648,11.7002841 C134.903682,11.8220841 135.324528,11.9954295 135.714489,12.2173295 L137.255682,11.3622159 L138.637784,12.7443182 L137.78267,14.2855114 C138.004548,14.6754145 138.177938,15.0963373 138.299716,15.5383523 L140,16.0255682 L140,17.9744318 L138.299716,18.4616477 C138.177938,18.9037009 138.004548,19.324525 137.78267,19.7144886 L138.637784,21.2556977 L137.255682,22.6377841 L135.714489,21.7826705 C135.324528,22.0045705 134.903682,22.1779477 134.461648,22.2997159 L133.974432,24.0000095 L132.025568,24.0000095 L131.538352,22.2997159 C131.096315,22.1779477 130.675472,22.0045705 130.285511,21.7826705 L128.744318,22.6377841 L127.362216,21.2556977 L128.21733,19.7144886 C127.995455,19.324525 127.822059,18.9037009 127.700284,18.4616477 L126,17.9744318 L126,16.0255682 L127.700284,15.5383523 C127.822059,15.0963373 127.995455,14.6754145 128.21733,14.2855114 L127.362216,12.7443182 L128.744318,11.3622159 L130.285511,12.2173295 C130.675472,11.9954295 131.096315,11.8220841 131.538352,11.7002841 L132.025568,10 Z M133,14.7727273 C131.769912,14.7727273 130.772727,15.7699218 130.772727,17 C130.772727,18.2300814 131.769912,19.2272886 133,19.2272886 C134.230088,19.2272886 135.227273,18.2300814 135.227273,17 C135.227273,15.7699218 134.230088,14.7727273 133,14.7727273 Z" id="Combined-Shape-Copy-3"></path>
        </g>
    </g>
</svg>