<?xml version="1.0" encoding="UTF-8"?>
<svg width="27px" height="27px" viewBox="0 0 27 27" version="1.1" xmlns="http://www.w3.org/2000/svg" xmlns:xlink="http://www.w3.org/1999/xlink">
    <!-- Generator: Sketch 46 (44423) - http://www.bohemiancoding.com/sketch -->
    <title>Group 37</title>
    <desc>Created with Sketch.</desc>
    <defs></defs>
    <g id="Setting-pannel" stroke="none" stroke-width="1" fill="none" fill-rule="evenodd">
        <g id="background-pannel1" transform="translate(-1145.000000, -418.000000)">
            <g id="Group-37" transform="translate(1145.000000, 418.000000)">
                <rect id="Rectangle-2-Copy-32" fill-opacity="0.6" fill="#394959" x="0" y="0" width="27" height="27" rx="13.5"></rect>
                <path d="M19.658586,9.34128333 L19.658586,9.34128333 L19.658586,9.34128333 C20.1111116,9.80268372 20.1141702,10.5404517 19.6654859,11.0055883 L14.4882345,16.3726782 L13.2150325,17.6938995 L13.2150325,17.6938995 C12.831802,18.0915837 12.1987454,18.1033008 11.8010612,17.7200702 C11.791801,17.7111466 11.7827138,17.7020451 11.7738047,17.692771 L10.5056712,16.3726782 L8.36932327,14.160526 L8.36932327,14.160526 C7.88665454,13.6607306 7.87575972,12.8717933 8.34444321,12.3588602 L8.34444321,12.3588602 L8.34444321,12.3588602 C8.77018662,11.8929214 9.49303794,11.8603365 9.95897681,12.2860799 C9.98102229,12.3062236 10.0022697,12.3272236 10.0226702,12.3490316 L12.4938322,14.9906916 L18.0329864,9.34139212 L18.0329864,9.34139212 C18.47316,8.89246572 19.193918,8.88537019 19.6428444,9.3255438 C19.6481428,9.33073888 19.6533902,9.33598564 19.658586,9.34128333 Z" id="Path-Copy-9" fill="#FFFFFF"></path>
            </g>
        </g>
    </g>
</svg>