<?xml version="1.0" encoding="UTF-8"?>
<svg width="10px" height="14px" viewBox="0 0 10 14" version="1.1" xmlns="http://www.w3.org/2000/svg" xmlns:xlink="http://www.w3.org/1999/xlink">
    <!-- Generator: Sketch 46 (44423) - http://www.bohemiancoding.com/sketch -->
    <title>A82</title>
    <desc>Created with Sketch.</desc>
    <defs></defs>
    <g id="underline" stroke="none" stroke-width="1" fill="none" fill-rule="evenodd">
        <g id="Text-Gizmo-drop-down" transform="translate(-1431.000000, -301.000000)" fill="#394959">
            <path d="M1431,314 L1440,314 L1440,315 L1431,315 L1431,314 Z M1440.8,308.68 C1440.8,310.226674 1440.368,311.375996 1439.504,312.128 C1438.64,312.880004 1437.44534,313.256 1435.92,313.256 C1434.37333,313.256 1433.176,312.88267 1432.328,312.136 C1431.48,311.38933 1431.056,310.237341 1431.056,308.68 L1431.056,301.576 L1433.568,301.576 L1433.568,308.68 C1433.568,308.989335 1433.59467,309.293332 1433.648,309.592 C1433.70133,309.890668 1433.81333,310.154666 1433.984,310.384 C1434.15467,310.613334 1434.392,310.799999 1434.696,310.944 C1435,311.088001 1435.408,311.16 1435.92,311.16 C1436.816,311.16 1437.43466,310.960002 1437.776,310.56 C1438.11734,310.159998 1438.288,309.533338 1438.288,308.68 L1438.288,301.576 L1440.8,301.576 L1440.8,308.68 Z" id="A82"></path>
        </g>
    </g>
</svg>