<?xml version="1.0" encoding="UTF-8"?>
<svg width="8px" height="13px" viewBox="0 0 8 13" version="1.1" xmlns="http://www.w3.org/2000/svg" xmlns:xlink="http://www.w3.org/1999/xlink">
    <!-- Generator: Sketch 46 (44423) - http://www.bohemiancoding.com/sketch -->
    <title>Shape</title>
    <desc>Created with Sketch.</desc>
    <defs></defs>
    <g id="Symbols" stroke="none" stroke-width="1" fill="none" fill-rule="evenodd">
        <g id="Builder-menu-" transform="translate(-369.000000, -17.000000)" fill-rule="nonzero" fill="#FFFFFF">
            <g id="Builder-menu">
                <path d="M370.932554,30 C370.888448,30 370.849856,29.9899578 370.811264,29.9748945 C370.695487,29.9246836 370.634842,29.8091984 370.662408,29.6937132 L371.886336,24.662576 L369.17936,23.7336734 C369.096662,23.7035468 369.030503,23.6432937 369.008451,23.5629561 C368.986398,23.4826186 369.008451,23.4022811 369.063583,23.3370069 L374.857945,17.0907646 C374.940643,17.0003849 375.078472,16.9752794 375.188736,17.0254904 C375.304513,17.0757013 375.365158,17.1911865 375.337592,17.3066717 L374.113664,22.337809 L376.82064,23.2667115 C376.903338,23.2968381 376.969497,23.3570912 376.991549,23.4374288 C377.013602,23.5177663 376.991549,23.5981038 376.936417,23.663378 L371.142055,29.9146414 C371.086923,29.9698734 371.009739,30 370.932554,30 Z" id="Shape"></path>
            </g>
        </g>
    </g>
</svg>