<?xml version="1.0" encoding="UTF-8"?>
<svg width="26px" height="26px" viewBox="0 0 26 26" version="1.1" xmlns="http://www.w3.org/2000/svg" xmlns:xlink="http://www.w3.org/1999/xlink">
    <!-- Generator: Sketch 46 (44423) - http://www.bohemiancoding.com/sketch -->
    <title>Group 31</title>
    <desc>Created with Sketch.</desc>
    <defs></defs>
    <g id="Setting-pannel" stroke="none" stroke-width="1" fill="none" fill-rule="evenodd">
        <g id="background-pannel1" transform="translate(-1124.000000, -508.000000)">
            <g id="Group" transform="translate(1124.000000, 508.000000)">
                <g id="Group-31">
                    <rect id="Rectangle-2-Copy-23" fill="#E8F3FE" x="0" y="0" width="26" height="26" rx="13"></rect>
                    <g id="Group-Copy-3" transform="translate(6.000000, 6.000000)" fill-rule="nonzero" fill="#419CF8">
                        <path d="M7,0 C8.08926087,0 9.1844413,0.441607342 10.0149457,1.32444997 C10.6325739,1.98098491 11.0069978,2.79544994 11.1657609,3.64474274 C12.7774196,3.97708666 14,5.47330562 14,7.2793817 C14,9.32842877 12.427587,10.9999513 10.5,10.9999513 L8.82608696,10.9999513 C8.66144882,11.0024264 8.50831068,10.9104755 8.42531213,10.7593083 C8.34231357,10.6081411 8.34231357,10.421178 8.42531213,10.2700109 C8.50831068,10.1188437 8.66144882,10.0268928 8.82608696,10.0293679 L10.5,10.0293679 C11.9341174,10.0293679 13.0869565,8.80387699 13.0869565,7.2793817 C13.0869565,5.83969922 12.0569674,4.66681555 10.7377717,4.53950736 C10.5246407,4.51743014 10.3545812,4.34085755 10.3288043,4.11487714 C10.2448043,3.34567365 9.92461522,2.59835681 9.36820652,2.00688331 C8.71300652,1.31040886 7.85798696,0.970591452 7,0.970591452 C6.14201304,0.970591452 5.29238043,1.3096971 4.63655652,2.00688331 C3.87866957,2.81251603 3.55796304,3.90709142 3.67594348,4.95402734 C3.69228064,5.09199351 3.6521638,5.23078187 3.5657676,5.33519221 C3.47937139,5.43960255 3.3549955,5.49960466 3.22418478,5.49998048 L3.04347826,5.49998048 C1.85531957,5.49998048 0.913043478,6.50163707 0.913043478,7.76467338 C0.913043478,9.02770969 1.85531957,10.0293679 3.04347826,10.0293679 L5.17391304,10.0293679 C5.33855118,10.0268928 5.49168932,10.1188437 5.57468787,10.2700109 C5.65768643,10.421178 5.65768643,10.6081411 5.57468787,10.7593083 C5.49168932,10.9104755 5.33855118,11.0024264 5.17391304,10.9999513 L3.04347826,10.9999513 C1.36528913,10.9999513 0,9.54862178 0,7.76467338 C0,6.08100242 1.22016087,4.71039474 2.76766304,4.55972785 C2.76051087,3.38870284 3.15178043,2.21526756 3.98981739,1.32444997 C4.8195913,0.44233528 5.91073913,0 7,0 Z" id="Shape"></path>
                        <path d="M7.00050705,5 C7.14335612,5 7.2188796,5.05363335 7.29060406,5.13020003 L8.86162967,6.79686543 C9.043026,6.99333214 9.03986966,7.31218222 8.8884228,7.50519893 C8.73696165,7.69821564 8.44760729,7.71218231 8.28143563,7.53644894 L7.42896857,6.63019872 L7.42896857,11.4999999 C7.42896857,11.7761333 7.23717491,12 7.00050705,12 C6.7638249,12 6.57204552,11.7761333 6.57204552,11.4999999 L6.57204552,6.63019872 L5.71957846,7.53644894 C5.5534068,7.71218231 5.27277878,7.68836564 5.11259129,7.50519893 C4.94379173,7.31218222 4.97469809,6.97451547 5.13938442,6.79686543 L6.71041003,5.13020003 C6.79527397,5.03951501 6.85765797,5 7.00050705,5 Z" id="Shape"></path>
                    </g>
                </g>
            </g>
        </g>
    </g>
</svg>