<?xml version="1.0" encoding="UTF-8"?>
<svg width="17px" height="10px" viewBox="0 0 17 10" version="1.1" xmlns="http://www.w3.org/2000/svg" xmlns:xlink="http://www.w3.org/1999/xlink">
    <!-- Generator: Sketch 48.2 (47327) - http://www.bohemiancoding.com/sketch -->
    <title>e12</title>
    <desc>Created with Sketch.</desc>
    <defs></defs>
    <g id="e15" stroke="none" stroke-width="1" fill="none" fill-rule="evenodd">
        <path d="M12,7.0710062 L12,7.70162975 C12,8.97098459 11.044179,10 9.86511402,10 L2.13488598,10 C0.95582101,10 0,8.97098459 0,7.70162975 L0,2.29837025 C0,1.02901541 0.95582101,0 2.13488598,0 L9.86511402,0 C10.9349364,0 11.8209664,0.847168503 11.9759673,1.95236281 L15.0532291,0.188248728 C15.4351722,-0.0393707988 15.9261089,-0.0622242717 16.3325268,0.128696457 C16.7460659,0.331594369 17.002147,0.720012614 16.9999864,1.14108507 L16.9999864,7.85064095 C17.002147,8.2717134 16.7460659,8.66013165 16.3325268,8.86302956 C16.1490139,8.9526374 15.9432352,8.99973191 15.7340379,8.99999978 C15.4925622,9.00013462 15.2561714,8.93810132 15.0532291,8.82134297 L12,7.0710062 Z M9.14285714,3 C9.61624407,3 10,2.55228475 10,2 C10,1.44771525 9.61624407,1 9.14285714,1 L2.85714286,1 C2.38375593,1 2,1.44771525 2,2 C2,2.55228475 2.38375593,3 2.85714286,3 L9.14285714,3 Z" id="e12" fill="#394959" fill-rule="nonzero"></path>
    </g>
</svg>