<?xml version="1.0" encoding="UTF-8"?>
<svg width="14px" height="8px" viewBox="0 0 14 8" version="1.1" xmlns="http://www.w3.org/2000/svg" xmlns:xlink="http://www.w3.org/1999/xlink">
    <!-- Generator: Sketch 48.2 (47327) - http://www.bohemiancoding.com/sketch -->
    <title>z7</title>
    <desc>Created with Sketch.</desc>
    <defs></defs>
    <g id="z18" stroke="none" stroke-width="1" fill="none" fill-rule="evenodd" transform="translate(-15.000000, -11.000000)">
        <g id="z7" transform="translate(15.000000, 11.000000)" fill="#394959">
            <g id="z6" transform="translate(0.000000, 0.046753)">
                <path d="M0,3.92727273 C1.65110565,1.30909091 3.77395577,1.95943488e-16 6.36855037,0 C8.96314496,0 11.2039312,1.30909091 13.0909091,3.92727273 C11.2039312,6.54545455 8.96314496,7.85454545 6.36855037,7.85454545 C3.77395577,7.85454545 1.65110565,6.54545455 0,3.92727273 Z M6.54545455,6.76060585 C8.05731406,6.76060585 9.27124946,5.48597368 9.27124946,3.92727273 C9.27124946,2.36857178 8.05731406,1.09393961 6.54545455,1.09393961 C5.03359504,1.09393961 3.81965963,2.36857178 3.81965963,3.92727273 C3.81965963,5.48597368 5.03359504,6.76060585 6.54545455,6.76060585 Z M6.60009766,5.45324675 C5.77167053,5.45324675 5.10009766,4.78167388 5.10009766,3.95324675 C5.10009766,3.12481963 5.77167053,2.45324675 6.60009766,2.45324675 C7.42852478,2.45324675 8.10009766,3.12481963 8.10009766,3.95324675 C8.10009766,4.78167388 7.42852478,5.45324675 6.60009766,5.45324675 Z" id="z5"></path>
            </g>
        </g>
    </g>
</svg>