<?xml version="1.0" encoding="UTF-8"?>
<svg width="18px" height="11px" viewBox="0 0 18 11" version="1.1" xmlns="http://www.w3.org/2000/svg" xmlns:xlink="http://www.w3.org/1999/xlink">
    <!-- Generator: Sketch 48.2 (47327) - http://www.bohemiancoding.com/sketch -->
    <title>z23</title>
    <desc>Created with Sketch.</desc>
    <defs></defs>
    <g id="z24" stroke="none" stroke-width="1" fill="none" fill-rule="evenodd" transform="translate(-10.000000, -19.000000)">
        <g id="z23" transform="translate(10.000000, 19.000000)" fill="#394959">
            <g id="z22" transform="translate(0.000000, 0.062338)">
                <path d="M0,5.23636364 C2.2014742,1.74545455 5.03194103,2.61257984e-16 8.49140049,0 C11.95086,0 14.9385749,1.74545455 17.4545455,5.23636364 C14.9385749,8.72727273 11.95086,10.4727273 8.49140049,10.4727273 C5.03194103,10.4727273 2.2014742,8.72727273 0,5.23636364 Z M8.72727273,9.01414113 C10.7430854,9.01414113 12.3616659,7.31463157 12.3616659,5.23636364 C12.3616659,3.1580957 10.7430854,1.45858614 8.72727273,1.45858614 C6.71146005,1.45858614 5.09287951,3.1580957 5.09287951,5.23636364 C5.09287951,7.31463157 6.71146005,9.01414113 8.72727273,9.01414113 Z M8.80013021,7.27099567 C7.69556071,7.27099567 6.80013021,6.37556517 6.80013021,5.27099567 C6.80013021,4.16642617 7.69556071,3.27099567 8.80013021,3.27099567 C9.90469971,3.27099567 10.8001302,4.16642617 10.8001302,5.27099567 C10.8001302,6.37556517 9.90469971,7.27099567 8.80013021,7.27099567 Z" id="z21"></path>
            </g>
        </g>
    </g>
</svg>