<?xml version="1.0" encoding="UTF-8"?>
<svg width="14px" height="12px" viewBox="0 0 14 12" version="1.1" xmlns="http://www.w3.org/2000/svg" xmlns:xlink="http://www.w3.org/1999/xlink">
    <!-- Generator: Sketch 48.2 (47327) - http://www.bohemiancoding.com/sketch -->
    <title>z16</title>
    <desc>Created with Sketch.</desc>
    <defs></defs>
    <g id="z17" stroke="none" stroke-width="1" fill="none" fill-rule="evenodd" transform="translate(-15.000000, -9.000000)">
        <g id="z16" transform="translate(15.000000, 9.000000)" fill="#394959">
            <g id="z15" transform="translate(0.000000, 0.046753)">
                <path d="M7.90377862,2.16159196 L9.10893164,0.342563151 L10.5541253,1.19822558 L9.54398216,2.73833297 C10.8397995,3.38133195 12.0221085,4.44431187 13.0909091,5.92727273 C11.2039312,8.54545455 8.96314496,9.85454545 6.36855037,9.85454545 C5.88466311,9.85454545 5.41718387,9.8090132 4.96611265,9.71794869 L3.5,11.9532468 L2.05480639,10.9898892 L3.28685185,9.13026955 C2.0376656,8.48875781 0.94204832,7.42109221 0,5.92727273 C1.65110565,3.30909091 3.77395577,2 6.36855037,2 C6.89485095,2 7.40659371,2.05386399 7.90377862,2.16159196 Z M5.68772231,8.61775172 C5.95712719,8.7104072 6.24542432,8.76060585 6.54545455,8.76060585 C8.05731406,8.76060585 9.27124946,7.48597368 9.27124946,5.92727273 C9.27124946,5.23955274 9.03493338,4.60713225 8.64097814,4.11509152 L7.91233192,5.22601673 C8.03196482,5.44142494 8.10009766,5.68937921 8.10009766,5.95324675 C8.10009766,6.78167388 7.42852478,7.45324675 6.60009766,7.45324675 C6.55148791,7.45324675 6.50341821,7.45093452 6.45599255,7.44641405 L5.68772231,8.61775172 Z M4.32241159,7.56722073 L5.14621494,6.32379188 C5.11610124,6.20527698 5.10009766,6.08113078 5.10009766,5.95324675 C5.10009766,5.20156296 5.65300823,4.57901835 6.37431507,4.47012725 L7.22704246,3.18304116 C7.00939107,3.12488943 6.78103981,3.09393961 6.54545455,3.09393961 C5.03359504,3.09393961 3.81965963,4.36857178 3.81965963,5.92727273 C3.81965963,6.53720289 4.00553858,7.10363618 4.32241159,7.56722073 Z" id="z14"></path>
            </g>
        </g>
    </g>
</svg>