<?xml version="1.0" encoding="UTF-8"?>
<svg width="19px" height="17px" viewBox="0 0 19 17" version="1.1" xmlns="http://www.w3.org/2000/svg" xmlns:xlink="http://www.w3.org/1999/xlink">
    <!-- Generator: Sketch 48.2 (47327) - http://www.bohemiancoding.com/sketch -->
    <title>z31</title>
    <desc>Created with Sketch.</desc>
    <defs></defs>
    <g id="z25" stroke="none" stroke-width="1" fill="none" fill-rule="evenodd" transform="translate(-11.000000, -13.000000)">
        <g id="z31" transform="translate(11.000000, 13.000000)" fill="#394959">
            <g id="z30" transform="translate(0.000000, 0.064735)">
                <path d="M10.9436935,2.99297348 L12.6123669,0.474318209 L14.6134042,1.65908158 L13.2147445,3.79153795 C15.0089531,4.68184424 16.6459963,6.15366259 18.1258741,8.20699301 C15.5131355,11.8321678 12.4105084,13.6447552 8.81799282,13.6447552 C8.14799507,13.6447552 7.50071612,13.5817106 6.87615597,13.4556213 L4.84615385,16.5506494 L2.84511654,15.2167696 L4.55102564,12.6419117 C2.82138314,11.7536647 1.3043746,10.2753584 0,8.20699301 C2.28614629,4.58181818 5.22547723,2.76923077 8.81799282,2.76923077 C9.54671671,2.76923077 10.2552836,2.84381167 10.9436935,2.99297348 Z M7.87530781,11.9322716 C8.24832995,12.0605638 8.64751059,12.1300696 9.06293706,12.1300696 C11.156281,12.1300696 12.8371146,10.3651943 12.8371146,8.20699301 C12.8371146,7.25476533 12.5099078,6.37910619 11.9644313,5.69781903 L10.9555365,7.23602316 C11.1211821,7.53428068 11.2155198,7.87760198 11.2155198,8.24295704 C11.2155198,9.39000998 10.2856497,10.3198801 9.13859675,10.3198801 C9.07129095,10.3198801 9.0047329,10.3166786 8.9390666,10.3104194 L7.87530781,11.9322716 Z M5.98487758,10.4776902 L7.12552838,8.75601953 C7.08383248,8.59192197 7.06167368,8.42002724 7.06167368,8.24295704 C7.06167368,7.2021641 7.82724217,6.34017926 8.82597472,6.18940695 L10.0066742,4.40728775 C9.70531071,4.32676999 9.38913205,4.28391638 9.06293706,4.28391638 C6.96959313,4.28391638 5.28875949,6.04879169 5.28875949,8.20699301 C5.28875949,9.0515117 5.54613034,9.83580393 5.98487758,10.4776902 Z" id="z29"></path>
            </g>
        </g>
    </g>
</svg>