<?xml version="1.0" encoding="UTF-8"?>
<svg width="12px" height="20px" viewBox="0 0 12 20" version="1.1" xmlns="http://www.w3.org/2000/svg" xmlns:xlink="http://www.w3.org/1999/xlink">
    <defs>
        <path d="M3,0 L9,0 C10.6568542,-3.04359188e-16 12,1.34314575 12,3 L12,17 C12,18.6568542 10.6568542,20 9,20 L3,20 C1.34314575,20 2.02906125e-16,18.6568542 0,17 L0,3 C-2.02906125e-16,1.34314575 1.34314575,3.04359188e-16 3,0 Z" id="wMobile-path-1"></path>
    </defs>
    <g id="Artboard" stroke="none" stroke-width="1" fill="none" fill-rule="evenodd" transform="translate(-468.000000, -180.000000)">
        <g id="wMobile-c335" transform="translate(468.000000, 180.000000)">
            <mask id="wMobile-mask-2" fill="white">
                <use xlink:href="#wMobile-path-1"></use>
            </mask>
            <use id="wMobile-c334" fill="#FFFFFF" xlink:href="#wMobile-path-1"></use>
            <path d="M2,2 L9.5,2 C9.77614237,2 10,2.22385763 10,2.5 L10,15.5 C10,15.7761424 9.77614237,16 9.5,16 L2.5,16 C2.22385763,16 2,15.7761424 2,15.5 L2,2 Z" id="wMobile-c333" fill="#C2C4FF"></path>
            <polygon id="wMobile-c332" fill="#FFFFFF" points="2 2 8 2 2 10"></polygon>
            <circle id="wMobile-c331" fill="#C2C4FF" cx="6" cy="18" r="1"></circle>
        </g>
    </g>
</svg>