<?xml version="1.0" encoding="UTF-8"?>
<svg width="17px" height="17px" viewBox="0 0 17 17" version="1.1" xmlns="http://www.w3.org/2000/svg" xmlns:xlink="http://www.w3.org/1999/xlink">
    <!-- Generator: Sketch 48.2 (47327) - http://www.bohemiancoding.com/sketch -->
    <title>z313</title>
    <desc>Created with Sketch.</desc>
    <defs></defs>
    <g id="z310" stroke="none" stroke-width="1" fill="none" fill-rule="evenodd" transform="translate(-5.000000, -5.000000)">
        <g id="z313" transform="translate(5.000000, 5.000000)">
            <rect id="z311" stroke="#00D7B5" x="0.5" y="0.5" width="16" height="16" rx="8"></rect>
            <path d="M12.0625,9.4375 L9.4375,9.4375 L9.4375,12.0625 C9.4375,12.5875 9.025,13 8.5,13 C7.975,13 7.5625,12.5875 7.5625,12.0625 L7.5625,9.4375 L4.9375,9.4375 C4.4125,9.4375 4,9.025 4,8.5 C4,7.975 4.4125,7.5625 4.9375,7.5625 L7.5625,7.5625 L7.5625,4.9375 C7.5625,4.4125 7.975,4 8.5,4 C9.025,4 9.4375,4.4125 9.4375,4.9375 L9.4375,7.5625 L12.0625,7.5625 C12.5875,7.5625 13,7.975 13,8.5 C13,9.025 12.5875,9.4375 12.0625,9.4375 Z" id="z312" fill="#06C8AB"></path>
        </g>
    </g>
</svg>